<svg width="63" height="49" viewBox="0 0 63 49" fill="none" xmlns="http://www.w3.org/2000/svg">
<path d="M30.1066 47.79L1.20648 28.5328C0.286751 27.951 -0.502304 26.9934 0.393968 26.3681L29.3997 7.52085C29.8352 7.21674 30.4953 7.0184 30.9376 7.3074L61.2718 27.1577C62.1915 27.7602 62.3574 29.4432 61.4393 30.0458L33.9162 47.7579C33.3385 48.1361 32.6833 48.338 32.0152 48.3436C31.3472 48.3492 30.6893 48.1584 30.1066 47.79Z" fill="#FFA87D"/>
<path d="M30.3563 37.7827C39.7288 37.7827 47.3268 33.5357 47.3268 28.2967C47.3268 23.0577 39.7288 18.8107 30.3563 18.8107C20.9837 18.8107 13.3857 23.0577 13.3857 28.2967C13.3857 33.5357 20.9837 37.7827 30.3563 37.7827Z" fill="#FFFCC7"/>
<path style="mix-blend-mode:multiply" d="M23.3972 25.0591L19.5993 23.6878L6.86725 32.2973C8.45373 33.8368 22.4607 42.5993 24.2348 43.8705L39.6675 32.2199C39.4815 31.7345 23.6552 25.5162 23.3972 25.0591Z" fill="url(#paint0_linear_9_863)"/>
<path d="M25.1907 9.58474C26.3176 9.01187 26.7323 7.30008 26.1169 5.76136C25.5016 4.22264 24.0893 3.43966 22.9624 4.01253C21.8356 4.5854 21.4209 6.29719 22.0362 7.83591C22.6515 9.37463 24.0639 10.1576 25.1907 9.58474Z" fill="#7EA83B"/>
<path d="M22.8024 4.10384L23.6099 3.68451L25.9201 9.20194L25.0088 9.66472" fill="#7EA83B"/>
<path d="M25.7581 9.29665C26.885 8.72378 27.2996 7.012 26.6843 5.47328C26.069 3.93455 24.6567 3.15158 23.5298 3.72445C22.4029 4.29732 21.9883 6.0091 22.6036 7.54782C23.2189 9.08654 24.6312 9.86952 25.7581 9.29665Z" fill="#A2CB6B"/>
<path d="M25.6183 8.94709C26.6034 8.44626 26.9658 6.94938 26.4277 5.60371C25.8895 4.25804 24.6547 3.57317 23.6695 4.074C22.6844 4.57483 22.322 6.07171 22.8601 7.41738C23.3982 8.76305 24.6331 9.44793 25.6183 8.94709Z" fill="#ECFFCF"/>
<path d="M24.2164 4.70074L24.1192 4.4514C24.1081 4.42992 24.0934 4.41111 24.0758 4.39605C24.0583 4.381 24.0383 4.37 24.017 4.36368C23.9956 4.35737 23.9734 4.35586 23.9516 4.35924C23.9297 4.36262 23.9087 4.37084 23.8897 4.3834C23.8706 4.3959 23.854 4.41252 23.8406 4.4323C23.8273 4.45208 23.8175 4.47464 23.8119 4.49868C23.8063 4.52272 23.805 4.54777 23.808 4.57239C23.811 4.59702 23.8182 4.62073 23.8294 4.64218L23.9266 4.89151C23.9376 4.913 23.9524 4.93181 23.9699 4.94686C23.9875 4.96191 24.0075 4.97291 24.0288 4.97923C24.0501 4.98555 24.0723 4.98706 24.0942 4.98367C24.116 4.98029 24.137 4.97208 24.1561 4.95951C24.1751 4.94701 24.1918 4.9304 24.2052 4.91062C24.2185 4.89084 24.2283 4.86828 24.2339 4.84424C24.2395 4.8202 24.2408 4.79515 24.2378 4.77052C24.2348 4.7459 24.2275 4.72218 24.2164 4.70074Z" fill="#B5E47C"/>
<path d="M23.6317 5.4544C23.5941 5.44538 23.5604 5.42203 23.5362 5.38829C23.5251 5.36681 23.5104 5.348 23.4928 5.33294C23.4753 5.31789 23.4553 5.30689 23.434 5.30057C23.4126 5.29426 23.3904 5.29275 23.3686 5.29613C23.3467 5.29951 23.3257 5.30772 23.3067 5.32029C23.2876 5.33279 23.2709 5.34941 23.2576 5.36919C23.2442 5.38897 23.2345 5.41152 23.2289 5.43557C23.2233 5.45961 23.2219 5.48466 23.2249 5.50928C23.2279 5.53391 23.2352 5.55762 23.2464 5.57907C23.3176 5.69534 23.4224 5.78012 23.5429 5.81896C23.5858 5.83223 23.6316 5.82576 23.6702 5.80096C23.7089 5.77617 23.7372 5.73508 23.749 5.68674C23.7607 5.63839 23.755 5.58676 23.733 5.54319C23.711 5.49961 23.6746 5.46768 23.6317 5.4544Z" fill="#B5E47C"/>
<path d="M23.3938 6.21377C23.3412 6.20841 23.2881 6.21549 23.238 6.23455C23.0336 6.31011 23.1208 6.67466 23.3268 6.5991C23.3486 6.59129 23.372 6.59129 23.3938 6.5991C23.4383 6.5991 23.4809 6.5792 23.5123 6.54378C23.5437 6.50836 23.5614 6.46031 23.5614 6.41022C23.5623 6.38478 23.5586 6.35941 23.5506 6.33561C23.5426 6.31181 23.5304 6.29009 23.5147 6.27174C23.4991 6.25339 23.4803 6.2388 23.4595 6.22884C23.4388 6.21888 23.4164 6.21375 23.3938 6.21377Z" fill="#B5E47C"/>
<path d="M23.8461 7.47555C23.8403 7.4516 23.8304 7.42918 23.8169 7.40958C23.8034 7.38997 23.7866 7.37355 23.7674 7.36127C23.7483 7.34899 23.7272 7.34108 23.7053 7.33801C23.6835 7.33493 23.6613 7.33674 23.6401 7.34333C23.5517 7.37528 23.4767 7.44243 23.429 7.53222C23.3268 7.74566 23.615 7.93644 23.7188 7.7211C23.7188 7.7041 23.7272 7.70033 23.7272 7.69844C23.7686 7.68554 23.804 7.65523 23.8261 7.61376C23.8483 7.57228 23.8554 7.52281 23.8461 7.47555Z" fill="#B5E47C"/>
<path d="M24.079 7.8042C24.0353 7.89743 24.0021 7.99641 23.9801 8.09887C23.9299 8.33498 24.2532 8.43698 24.3035 8.19898C24.3175 8.12814 24.3395 8.0596 24.3688 7.99498C24.4676 7.77964 24.1778 7.58887 24.079 7.8042Z" fill="#B5E47C"/>
<path d="M25.0775 8.38787C25.0593 8.33433 25.0519 8.27692 25.0557 8.21976C25.0691 7.9761 24.734 7.97798 24.7206 8.21976C24.7156 8.3108 24.727 8.40205 24.7541 8.48798C24.76 8.51193 24.7699 8.53435 24.7834 8.55396C24.7969 8.57357 24.8137 8.58998 24.8329 8.60226C24.852 8.61454 24.8731 8.62245 24.895 8.62553C24.9168 8.62861 24.939 8.6268 24.9602 8.62021C24.9814 8.61365 25.0013 8.60243 25.0187 8.5872C25.0361 8.57198 25.0507 8.55303 25.0616 8.53145C25.0725 8.50987 25.0795 8.48608 25.0822 8.46145C25.0849 8.43681 25.0833 8.41181 25.0775 8.38787Z" fill="#B5E47C"/>
<path d="M25.833 8.19897C25.8116 8.15359 25.7953 8.10536 25.7845 8.05541C25.7727 8.00707 25.7444 7.96598 25.7057 7.94118C25.6671 7.91639 25.6213 7.90992 25.5784 7.92319C25.5355 7.93647 25.4991 7.9684 25.4771 8.01197C25.4551 8.05554 25.4494 8.10718 25.4611 8.15552C25.4799 8.23708 25.5075 8.31574 25.5432 8.38975C25.6437 8.6013 25.9336 8.41052 25.833 8.19897Z" fill="#B5E47C"/>
<path d="M26.3356 7.41883C26.3298 7.39489 26.3199 7.37247 26.3063 7.35286C26.2928 7.33325 26.276 7.31683 26.2569 7.30455C26.2378 7.29227 26.2167 7.28437 26.1948 7.28129C26.173 7.27821 26.1508 7.28002 26.1296 7.28661C26.1129 7.28651 26.0963 7.28266 26.081 7.27528C25.8749 7.20161 25.7878 7.56616 25.9922 7.63983C26.0656 7.6646 26.1433 7.6685 26.2183 7.65116C26.2396 7.64461 26.2595 7.63339 26.2769 7.61816C26.2943 7.60294 26.3088 7.58399 26.3197 7.56241C26.3306 7.54083 26.3376 7.51704 26.3403 7.49241C26.3431 7.46777 26.3415 7.44277 26.3356 7.41883Z" fill="#B5E47C"/>
<path d="M26.3356 6.1665L26.086 6.19673C26.0416 6.19673 25.9989 6.21663 25.9675 6.25205C25.9361 6.28747 25.9185 6.33552 25.9185 6.38561C25.9185 6.41042 25.9228 6.43498 25.9312 6.4579C25.9396 6.48082 25.952 6.50164 25.9675 6.51918C25.9831 6.53672 26.0016 6.55063 26.0219 6.56012C26.0422 6.56962 26.064 6.5745 26.086 6.5745L26.3356 6.54428C26.38 6.54428 26.4226 6.52438 26.4541 6.48896C26.4855 6.45353 26.5031 6.40549 26.5031 6.35539C26.5031 6.3053 26.4855 6.25725 26.4541 6.22183C26.4226 6.1864 26.38 6.1665 26.3356 6.1665Z" fill="#B5E47C"/>
<path d="M25.9838 5.3203C25.9727 5.29881 25.958 5.28 25.9404 5.26495C25.9229 5.2499 25.9029 5.2389 25.8816 5.23258C25.8602 5.22626 25.838 5.22475 25.8162 5.22814C25.7943 5.23152 25.7733 5.23973 25.7543 5.2523L25.6186 5.36374C25.5995 5.37624 25.5828 5.39286 25.5695 5.41264C25.5561 5.43242 25.5464 5.45498 25.5408 5.47902C25.5352 5.50306 25.5338 5.52811 25.5368 5.55273C25.5398 5.57736 25.5471 5.60107 25.5583 5.62252C25.5694 5.64401 25.5841 5.66282 25.6016 5.67787C25.6192 5.69292 25.6392 5.70392 25.6605 5.71024C25.6818 5.71656 25.704 5.71807 25.7259 5.71468C25.7477 5.7113 25.7688 5.70309 25.7878 5.69052L25.9235 5.57908C25.9425 5.56658 25.9592 5.54996 25.9726 5.53018C25.9859 5.5104 25.9957 5.48784 26.0013 5.4638C26.0069 5.43976 26.0082 5.41471 26.0052 5.39009C26.0022 5.36546 25.9949 5.34174 25.9838 5.3203Z" fill="#B5E47C"/>
<path d="M25.0992 4.66675L25.0205 4.84052C24.9217 5.05586 25.2115 5.24852 25.3103 5.02941L25.3891 4.85563C25.4862 4.64219 25.1981 4.45141 25.0992 4.66675Z" fill="#B5E47C"/>
<path d="M25.1914 5.87372C25.1043 5.63384 24.9518 5.35239 24.6888 5.3335C24.6305 5.32939 24.5723 5.34115 24.5189 5.36778C24.4656 5.39441 24.4187 5.43513 24.3822 5.4865L24.3588 5.49784C24.3127 5.5289 24.2737 5.57158 24.2448 5.6225C24.0488 5.79061 24.0053 6.18917 24.0371 6.42339C24.0531 6.58144 24.1074 6.73147 24.1939 6.85707C24.2805 6.98267 24.3961 7.079 24.528 7.1355C24.5651 7.14661 24.6036 7.15044 24.6419 7.14683C24.6693 7.15641 24.6973 7.16398 24.7256 7.1695C25.3991 7.28094 25.3555 6.32706 25.1914 5.87372Z" fill="#FEFFFD"/>
<path d="M15.3357 19.4491C15.3357 19.4491 14.8063 34.5432 30.3311 34.5432C45.9581 34.5432 45.5208 20.8734 45.3265 19.4491C45.1322 18.0249 15.3357 19.4491 15.3357 19.4491Z" fill="#68E1FD"/>
<path opacity="0.29" d="M15.3357 19.4491C15.3357 19.4491 14.8063 34.5432 30.3311 34.5432C45.9581 34.5432 45.5208 20.8734 45.3265 19.4491C45.1322 18.0249 15.3357 19.4491 15.3357 19.4491Z" fill="#093E3E"/>
<path opacity="0.29" d="M25.0808 29.5169C23.2833 26.4267 22.3267 22.8227 21.8978 19.1772C18.0782 19.3207 15.3425 19.4511 15.3425 19.4511C15.3425 19.4511 14.8315 34.0635 29.6024 34.5319C27.7919 33.2477 26.2494 31.5369 25.0808 29.5169Z" fill="#093E3E"/>
<path d="M30.3311 28.2948C38.6129 28.2948 45.3265 24.3345 45.3265 19.4492C45.3265 14.5638 38.6129 10.6035 30.3311 10.6035C22.0494 10.6035 15.3358 14.5638 15.3358 19.4492C15.3358 24.3345 22.0494 28.2948 30.3311 28.2948Z" fill="#68E1FD"/>
<path opacity="0.66" d="M30.3177 27.2219C37.8833 27.2219 44.0165 23.7419 44.0165 19.4491C44.0165 15.1564 37.8833 11.6764 30.3177 11.6764C22.7521 11.6764 16.619 15.1564 16.619 19.4491C16.619 23.7419 22.7521 27.2219 30.3177 27.2219Z" fill="#093E3E"/>
<path d="M28.0109 16.5308C27.3408 17.173 26.5651 17.3582 25.833 16.9426C26.2602 16.9785 26.7159 16.9747 27.0895 16.7537C27.572 16.459 27.7479 15.8603 28.0226 15.371C28.4331 14.6382 28.9792 14.0658 29.7716 13.9865C29.8202 13.981 29.8692 13.9868 29.9157 14.0035C29.9261 13.9412 29.9317 13.878 29.9324 13.8146C29.9324 12.5226 28.7597 14.1093 28.3057 13.2649C28.2557 13.1724 28.2242 13.0686 28.2136 12.9608C28.1432 13.1497 28.0762 13.3386 28.0092 13.5275C27.639 13.9997 27.3391 14.5418 26.9488 15.0386C26.6485 15.4324 26.2665 15.7362 25.8368 15.9231C25.4071 16.11 24.9431 16.174 24.4861 16.1096C25.0055 16.0632 25.5069 15.8738 25.9462 15.558C26.3855 15.2421 26.7493 14.8095 27.0057 14.2982C27.5535 13.2876 27.6959 12.0919 28.3677 11.1551C28.3932 11.1199 28.4238 11.0898 28.4582 11.0663C28.3947 10.9807 28.3208 10.9057 28.2387 10.8434C27.2972 10.0878 27.0309 12.3035 26.5216 11.8521C26.4619 11.804 26.4161 11.7371 26.3898 11.6599C26.3636 11.5826 26.3582 11.4983 26.3741 11.4176C26.313 11.4993 26.257 11.5858 26.2066 11.6764C25.8615 12.3299 25.9034 13.1063 25.6119 13.7731C25.1713 14.7761 24.1226 14.7477 23.3603 15.2596C23.6786 14.8252 24.141 14.6816 24.533 14.3001C25.0507 13.7957 25.2919 13.0421 25.4527 12.3148C25.5868 11.7104 25.6588 11.0606 26.0357 10.5752C26.1746 10.4021 26.3418 10.2609 26.5283 10.1596C26.2535 10.0104 25.7225 10.0349 24.6737 11.0039C24.5262 11.1451 24.3655 11.268 24.1946 11.3704C23.7222 12.3148 23.4726 13.4973 23.3285 14.4852C23.32 14.5466 23.2988 14.6048 23.2665 14.6552C23.2397 13.9676 23.171 13.2801 23.2665 12.5944C23.3195 12.1958 23.3996 11.8024 23.5061 11.4176C23.1811 11.2193 23.0504 10.8207 22.3568 11.9597C21.1841 13.8713 22.2798 16.0227 22.2798 16.0227C24.4141 18.9826 29.259 17.9966 29.2556 16.7348C29.2556 15.9793 28.9206 15.8433 28.6307 15.7337C28.5487 15.881 28.4716 16.034 28.3929 16.187C28.2706 16.2966 28.1466 16.408 28.0109 16.5308Z" fill="#A9CB1C"/>
<path d="M25.4578 12.3262C25.2902 13.0534 25.0557 13.8071 24.538 14.3114C24.146 14.6892 23.6853 14.8365 23.3654 15.2709C24.1259 14.7591 25.1763 14.7874 25.6169 13.7844C25.9084 13.1195 25.8682 12.3432 26.2116 11.6877C26.262 11.5971 26.318 11.5106 26.3792 11.429C26.4412 11.0191 26.8818 10.5676 26.7946 10.4297C26.7305 10.3194 26.6422 10.2297 26.5383 10.1691C26.3519 10.2704 26.1846 10.4115 26.0458 10.5846C25.6655 11.072 25.5918 11.7198 25.4578 12.3262Z" fill="#8BAA07"/>
<path d="M27.0057 14.2982C26.7465 14.8026 26.3822 15.2282 25.9444 15.5382C25.5066 15.8483 25.0083 16.0334 24.4928 16.0775C24.9498 16.142 25.4138 16.0779 25.8435 15.891C26.2732 15.7041 26.6552 15.4003 26.9555 15.0065C27.3424 14.5173 27.644 13.9771 28.0159 13.4954C28.0829 13.3065 28.1499 13.1176 28.2203 12.9288C28.1566 12.2752 28.8753 11.6481 28.4448 11.0512C28.4104 11.0748 28.3798 11.1048 28.3543 11.14C27.6875 12.0939 27.5451 13.2895 27.0057 14.2982Z" fill="#8BAA07"/>
<path d="M28.2286 15.3767C28.1599 14.8516 29.7464 15.0575 29.924 13.9884C29.8775 13.9717 29.8285 13.966 29.7799 13.9714C28.9892 14.0489 28.4397 14.6231 28.031 15.356C27.7562 15.8471 27.5803 16.444 27.0978 16.7386C26.7242 16.9672 26.2702 16.971 25.8414 16.9275C26.5718 17.3431 27.3491 17.1561 28.0192 16.5157C28.1482 16.393 28.2722 16.2815 28.3962 16.1833C28.4749 16.0303 28.552 15.8773 28.6341 15.73C28.4347 15.6695 28.2588 15.611 28.2286 15.3767Z" fill="#8BAA07"/>
<path d="M23.2715 14.6646C23.3038 14.6142 23.3251 14.556 23.3335 14.4946C23.4776 13.5086 23.7272 12.328 24.1996 11.3798C23.8646 11.5687 23.6635 11.5215 23.5077 11.427C23.4012 11.8118 23.3211 12.2052 23.2682 12.6038C23.176 13.2895 23.2447 13.9751 23.2715 14.6646Z" fill="#8BAA07"/>
<path d="M21.9129 19.8288C21.9129 19.8288 23.0856 15.3352 22.0117 14.2736C20.9379 13.2121 21.0551 14.6514 20.504 14.5173C19.9528 14.3832 20.2225 12.4395 19.2877 12.7436C18.3529 13.0477 19.2509 14.2547 18.8387 14.6854C18.4266 15.116 17.5304 13.4217 17.0445 14.2226C16.5587 15.0235 17.5672 15.167 17.3059 15.8527C17.0445 16.5384 15.6993 15.8244 15.8099 16.9615C15.9204 18.0986 17.455 17.5093 17.2673 18.2252C17.0797 18.941 15.4363 18.4783 16.4816 19.6588C17.527 20.8394 21.4656 20.2878 21.9129 19.8288Z" fill="#7AA901"/>
<path d="M21.9129 19.8289C21.9129 19.8289 21.6197 18.0382 21.6867 17.345C21.7537 16.6518 21.6431 16.5139 21.5342 15.8528C21.4253 15.1916 21.1992 14.9083 21.1992 14.9876C21.1992 15.067 21.4605 16.4572 21.0501 16.9615C20.6396 17.4659 20.452 16.6499 20.2275 16.1739C20.003 15.6979 19.534 15.5902 19.5708 15.0896C19.6077 14.5891 19.2927 14.0035 19.2927 14.0035C19.2927 14.0035 19.6278 15.6393 19.5541 16.1739C19.4804 16.7084 18.956 15.7696 18.6947 15.5222C18.4702 15.3515 18.2151 15.2386 17.9475 15.1916C17.9475 15.1916 19.3162 16.7934 19.1369 17.1296C18.9577 17.4659 17.8721 16.5403 17.537 16.5403C17.202 16.5403 18.2474 17.7624 18.5087 17.7624C18.77 17.7624 19.8271 17.804 19.6914 18.0155C19.5557 18.2271 18.5187 18.2686 18.1234 18.5633C17.7444 18.81 17.3483 19.0216 16.939 19.1961C16.939 19.1961 18.3462 18.943 19.1369 18.8183C19.9277 18.6936 20.2309 18.3971 20.5106 18.8183C20.7904 19.2395 21.9129 19.8289 21.9129 19.8289Z" fill="#759B00"/>
<path d="M42.6126 16.5497C42.6126 17.5452 42.2306 18.3272 41.4768 18.6804C41.78 18.3366 42.0715 17.9456 42.1603 17.4772C42.2759 16.8708 41.9927 16.3325 41.8353 15.7772C41.6091 14.9498 41.5773 14.1074 42.0397 13.3802C42.0678 13.3353 42.1037 13.2974 42.1452 13.2687C42.1089 13.2175 42.0685 13.1701 42.0246 13.1271C41.1568 12.2808 41.4567 14.3284 40.5972 14.1622C40.5024 14.1448 40.412 14.1041 40.3325 14.0432C40.4113 14.2321 40.5001 14.4021 40.5755 14.5815C40.6525 15.2067 40.8201 15.8168 40.8988 16.4704C40.969 16.9833 40.9255 17.5078 40.7724 17.9972C40.6192 18.4866 40.3611 18.9257 40.0209 19.2754C40.3231 18.8054 40.5197 18.2599 40.5938 17.6855C40.6679 17.111 40.6174 16.5249 40.4465 15.9774C40.1231 14.8441 39.4078 13.9525 39.2135 12.7663C39.2067 12.7219 39.2067 12.6766 39.2135 12.6322C39.1179 12.6308 39.0227 12.6442 38.9303 12.6718C37.8129 12.9911 39.128 14.6552 38.4948 14.7987C38.4237 14.8187 38.3489 14.8147 38.2798 14.7872C38.2107 14.7597 38.1503 14.7098 38.1061 14.6438C38.1226 14.7481 38.1455 14.851 38.1748 14.9517C38.3926 15.6733 38.9421 16.1417 39.2001 16.8236C39.5904 17.8531 38.8885 18.7333 38.7394 19.7193C38.6539 19.1639 38.8566 18.6747 38.855 18.0911C38.855 17.3185 38.5015 16.6234 38.1145 16.0133C37.7928 15.5052 37.4025 15.0216 37.3204 14.3813C37.2941 14.1501 37.3078 13.9153 37.3606 13.6899C37.0808 13.8278 36.7525 14.2982 36.724 15.8282C36.7236 16.0467 36.7022 16.2646 36.6603 16.4779C36.9954 17.4979 37.6236 18.4802 38.1949 19.2452C38.2304 19.292 38.2557 19.3477 38.2686 19.4076C37.7878 18.9826 37.2802 18.5954 36.8781 18.0703C36.6442 17.7661 36.4314 17.4422 36.2415 17.1013C35.8964 17.2505 35.5429 17.1013 35.8596 18.4386C36.3906 20.6788 38.54 21.1473 38.54 21.1473C41.9224 21.2436 44.4035 16.4496 43.5541 15.6336C43.0515 15.1501 42.7349 15.3427 42.4735 15.5184C42.5205 15.6846 42.5724 15.8508 42.6243 16.0171C42.6193 16.1814 42.6143 16.3608 42.6126 16.5497Z" fill="#A9CB1C"/>
<path d="M38.1144 16.0095C38.5014 16.6196 38.8516 17.3166 38.8549 18.0873C38.8549 18.671 38.6539 19.1602 38.7393 19.7155C38.8884 18.7314 39.5904 17.8493 39.2 16.8198C38.942 16.138 38.3909 15.6676 38.1748 14.948C38.1455 14.8473 38.1226 14.7444 38.1061 14.6401C37.8699 14.3209 37.8548 13.6465 37.704 13.6352C37.5903 13.6201 37.4751 13.6377 37.369 13.6862C37.3161 13.9115 37.3024 14.1463 37.3287 14.3775C37.4041 15.0178 37.7945 15.5014 38.1144 16.0095Z" fill="#8BAA07"/>
<path d="M40.4464 15.9736C40.6173 16.5212 40.6679 17.1073 40.5938 17.6817C40.5197 18.2561 40.3231 18.8017 40.0209 19.2716C40.361 18.9219 40.6191 18.4828 40.7723 17.9934C40.9255 17.504 40.9689 16.9795 40.8987 16.4666C40.82 15.8169 40.6525 15.2067 40.5754 14.5777C40.4933 14.3983 40.4079 14.2207 40.3325 14.0394C39.85 13.6616 39.8952 12.6454 39.2134 12.6265C39.2067 12.6709 39.2067 12.7163 39.2134 12.7606C39.4027 13.9487 40.1214 14.8479 40.4464 15.9736Z" fill="#8BAA07"/>
<path d="M41.9777 15.6242C41.5789 15.3427 42.75 14.1131 42.1452 13.2687C42.1036 13.2974 42.0677 13.3353 42.0396 13.3802C41.5789 14.1093 41.6091 14.9498 41.8353 15.7772C41.9877 16.3325 42.2758 16.8708 42.1603 17.4772C42.0715 17.9456 41.7783 18.3385 41.4767 18.6804C42.2306 18.3253 42.6059 17.5471 42.6126 16.5497C42.6126 16.3608 42.6126 16.1814 42.6344 16.0114C42.5824 15.8452 42.5288 15.679 42.4836 15.5127C42.3043 15.6336 42.1502 15.7545 41.9777 15.6242Z" fill="#8BAA07"/>
<path d="M38.2702 19.4038C38.2573 19.3439 38.2321 19.2883 38.1965 19.2414C37.6253 18.4764 36.992 17.4961 36.662 16.4742C36.5749 16.8822 36.4107 17.0257 36.2432 17.0975C36.433 17.4384 36.6459 17.7624 36.8798 18.0665C37.2818 18.5878 37.7894 18.9788 38.2702 19.4038Z" fill="#8BAA07"/>
<path d="M37.379 17.1787C37.379 17.1787 38.5517 12.6851 37.4778 11.6235C36.404 10.562 36.5213 12.0013 35.9701 11.8672C35.4189 11.7331 35.6886 9.78941 34.7538 10.0935C33.819 10.3976 34.717 11.6046 34.3049 12.0353C33.8928 12.466 32.9965 10.7716 32.5107 11.5725C32.0248 12.3734 33.0333 12.517 32.772 13.2026C32.5107 13.8883 31.1654 13.1743 31.276 14.3114C31.3865 15.4485 32.9211 14.8592 32.7335 15.5751C32.5458 16.291 30.9024 15.8282 31.9478 17.0087C32.9931 18.1893 36.9334 17.6434 37.379 17.1787Z" fill="#7AA901"/>
<path d="M37.379 17.1787C37.379 17.1787 37.0858 15.3881 37.1529 14.6948C37.2199 14.0016 37.1093 13.8637 37.0004 13.2026C36.8915 12.5415 36.6653 12.2582 36.6653 12.3375C36.6653 12.4168 36.9267 13.8071 36.5162 14.3114C36.1058 14.8157 35.9182 13.9997 35.6937 13.5237C35.4692 13.0477 35.0001 12.9401 35.037 12.4395C35.0738 11.9389 34.7589 11.3534 34.7589 11.3534C34.7589 11.3534 35.0939 12.9892 35.0202 13.5237C34.9465 14.0583 34.4222 13.1195 34.1608 12.8721C33.9367 12.7022 33.6822 12.59 33.4153 12.5434C33.4153 12.5434 34.784 14.1452 34.6048 14.4814C34.4255 14.8176 33.3399 13.8921 33.0049 13.8921C32.6698 13.8921 33.7152 15.1142 33.9765 15.1142C34.2379 15.1142 35.295 15.1557 35.1593 15.3673C35.0236 15.5788 33.9866 15.6204 33.5912 15.915C33.2122 16.1617 32.8161 16.3733 32.4068 16.5478C32.4068 16.5478 33.814 16.2947 34.6048 16.17C35.3955 16.0454 35.6987 15.7488 35.9785 16.17C36.2583 16.5913 37.379 17.1787 37.379 17.1787Z" fill="#759B00"/>
<path d="M33.7989 26.8876C33.102 27.5015 32.3281 27.6545 31.6127 27.2087C32.0399 27.2635 32.4939 27.2767 32.8742 27.0651C33.3667 26.7913 33.5611 26.2 33.8526 25.7221C34.2864 25.0081 34.8577 24.4566 35.6451 24.4113C35.6941 24.4082 35.7431 24.4166 35.7892 24.4358C35.8019 24.3737 35.8097 24.3105 35.8126 24.2469C35.8612 22.9549 34.6232 24.4925 34.206 23.6293C34.1591 23.5346 34.131 23.4295 34.1239 23.3214C34.0469 23.5103 33.9749 23.6859 33.9011 23.871C33.5158 24.3281 33.1942 24.8551 32.7921 25.3293C32.4793 25.7099 32.0878 25.9973 31.6526 26.166C31.2174 26.3348 30.7519 26.3795 30.2976 26.2964C30.8117 26.271 31.3127 26.1055 31.7577 25.8141C32.2026 25.5226 32.5783 25.1138 32.8524 24.6228C33.4337 23.6368 33.613 22.4468 34.3166 21.5402C34.3428 21.5061 34.374 21.4774 34.4087 21.4552C34.35 21.3701 34.2812 21.2945 34.2044 21.2304C33.288 20.4408 32.9496 22.6376 32.4554 22.1748C32.3972 22.1244 32.3534 22.0558 32.3296 21.9775C32.3057 21.8993 32.3029 21.8148 32.3214 21.7347C32.2604 21.814 32.2044 21.8979 32.1538 21.9859C31.7886 22.6263 31.8037 23.4026 31.4837 24.0637C31.0113 25.0478 29.9626 24.976 29.1852 25.4558C29.5203 25.0346 29.9843 24.9099 30.3881 24.5454C30.9225 24.0637 31.1889 23.3214 31.3731 22.5998C31.5256 22.001 31.6194 21.355 32.0131 20.8847C32.1565 20.7179 32.3272 20.5838 32.5157 20.4899C32.246 20.3294 31.7149 20.3313 30.6344 21.2568C30.4822 21.3916 30.3176 21.5075 30.1435 21.6025C29.6409 22.5299 29.3528 23.6973 29.1752 24.6776C29.1647 24.7382 29.1418 24.7951 29.1082 24.8438C29.1082 24.1544 29.0579 23.4668 29.1735 22.7849C29.2396 22.389 29.3325 21.9993 29.4516 21.6195C29.1333 21.4079 29.016 21.0037 28.2789 22.1125C27.0526 23.973 28.0678 26.1698 28.0678 26.1698C30.1033 29.2166 34.9783 28.4365 35.0152 27.1728C35.037 26.4173 34.7086 26.268 34.4238 26.1471C34.3384 26.2907 34.2563 26.4418 34.1709 26.591C34.0603 26.6647 33.9313 26.7705 33.7989 26.8876Z" fill="#A9CB1C"/>
<path d="M31.3799 22.5791C31.1956 23.3006 30.9292 24.0429 30.3948 24.5246C29.9911 24.8892 29.5253 25.0138 29.192 25.435C29.9693 24.9553 31.018 25.027 31.4904 24.0429C31.8037 23.3894 31.7886 22.6131 32.1605 21.9652C32.2112 21.8772 32.2671 21.7932 32.3281 21.7139C32.4035 21.3078 32.8625 20.8753 32.7754 20.7336C32.7147 20.6211 32.6293 20.528 32.5274 20.4635C32.3389 20.5574 32.1683 20.6915 32.0248 20.8583C31.6261 21.3343 31.529 21.9878 31.3799 22.5791Z" fill="#8BAA07"/>
<path d="M32.8524 24.6134C32.5783 25.1044 32.2026 25.5132 31.7577 25.8047C31.3127 26.0961 30.8117 26.2616 30.2976 26.2869C30.7519 26.3701 31.2174 26.3254 31.6526 26.1566C32.0878 25.9879 32.4793 25.7004 32.7921 25.3198C33.1942 24.8476 33.5141 24.3187 33.9011 23.8616C33.9748 23.6727 34.0469 23.4952 34.1239 23.312C34.0821 22.6565 34.8209 22.0596 34.4104 21.4457C34.3757 21.468 34.3445 21.4967 34.3183 21.5307C33.6147 22.4393 33.4337 23.6274 32.8524 24.6134Z" fill="#8BAA07"/>
<path d="M34.0419 25.7505C33.9899 25.2235 35.5697 25.4955 35.7825 24.4282C35.7364 24.409 35.6874 24.4007 35.6384 24.4037C34.846 24.449 34.2798 24.9987 33.8459 25.7146C33.5544 26.1943 33.36 26.7837 32.8675 27.0576C32.4872 27.2691 32.0299 27.2465 31.606 27.2011C32.3214 27.6469 33.097 27.492 33.7922 26.88C33.9246 26.7629 34.0519 26.6571 34.1809 26.5646C34.2647 26.4153 34.3484 26.2642 34.4339 26.1207C34.2446 26.0432 34.0703 25.979 34.0419 25.7505Z" fill="#8BAA07"/>
<path d="M29.1165 24.8212C29.1501 24.7725 29.1731 24.7155 29.1836 24.6549C29.3595 23.6746 29.6476 22.5073 30.1519 21.5798C29.8168 21.7555 29.6124 21.7007 29.4583 21.5968C29.3392 21.9767 29.2463 22.3663 29.1802 22.7623C29.068 23.4461 29.1132 24.1355 29.1165 24.8212Z" fill="#8BAA07"/>
<path d="M30.7265 21.2077C30.7265 21.2077 31.8992 16.7141 30.8253 15.6525C29.7515 14.591 29.8687 16.0303 29.3176 15.8962C28.7664 15.7621 29.0361 13.8184 28.1013 14.1225C27.1665 14.4266 28.0645 15.6336 27.6523 16.0643C27.2402 16.495 26.344 14.8006 25.8581 15.6015C25.3723 16.4024 26.3808 16.546 26.1195 17.2316C25.8581 17.9173 24.5129 17.2033 24.6234 18.3404C24.734 19.4775 26.2686 18.8882 26.0809 19.6041C25.8933 20.3199 24.2499 19.8572 25.2952 21.0377C26.3406 22.2183 30.2792 21.6705 30.7265 21.2077Z" fill="#7AA901"/>
<path d="M30.7265 21.2077C30.7265 21.2077 30.4333 19.417 30.5004 18.7238C30.5674 18.0306 30.4568 17.8927 30.3479 17.2316C30.239 16.5705 30.0128 16.2872 30.0128 16.3665C30.0128 16.4458 30.2742 17.836 29.8637 18.3404C29.4533 18.8447 29.2657 18.0287 29.0412 17.5527C28.8167 17.0767 28.3476 16.969 28.3845 16.4685C28.4213 15.9679 28.1064 15.3824 28.1064 15.3824C28.1064 15.3824 28.4414 17.0182 28.3677 17.5527C28.294 18.0873 27.7697 17.1485 27.5083 16.901C27.2838 16.7303 27.0287 16.6174 26.7611 16.5705C26.7611 16.5705 28.1298 18.1723 27.9506 18.5085C27.7713 18.8447 26.6858 17.9192 26.3507 17.9192C26.0156 17.9192 27.061 19.1413 27.3224 19.1413C27.5837 19.1413 28.6408 19.1828 28.5051 19.3944C28.3694 19.6059 27.3324 19.6475 26.937 19.9422C26.558 20.1888 26.1619 20.4004 25.7526 20.5749C25.7526 20.5749 27.1599 20.3218 27.9506 20.1972C28.7413 20.0725 29.0445 19.7759 29.3243 20.1972C29.6041 20.6184 30.7265 21.2077 30.7265 21.2077Z" fill="#759B00"/>
<path d="M32.1756 14.7232C33.0535 14.6117 33.7856 14.9404 34.1859 15.7413C33.8509 15.4429 33.4673 15.1614 33.0451 15.118C32.4989 15.0613 32.0583 15.4485 31.5876 15.6846C30.8857 16.036 30.1485 16.1701 29.4516 15.7413C29.4088 15.7149 29.3711 15.6789 29.341 15.6355C29.3002 15.6826 29.2631 15.7338 29.2305 15.7885C28.5888 16.8595 30.3563 16.2815 30.311 17.2637C30.3068 17.3718 30.2816 17.4775 30.2373 17.5735C30.3864 17.464 30.5338 17.3506 30.6829 17.2373C31.2241 17.0767 31.7417 16.8161 32.3046 16.6517C32.7482 16.5125 33.2154 16.4991 33.6647 16.6128C34.114 16.7265 34.5313 16.9637 34.8795 17.3034C34.43 17.0211 33.9264 16.8659 33.412 16.8511C32.8976 16.8363 32.3877 16.9623 31.926 17.2184C30.9728 17.7152 30.2658 18.62 29.2456 18.9788C29.2076 18.9919 29.1679 18.9976 29.1283 18.9958C29.1385 19.1028 29.1616 19.2076 29.197 19.3075C29.6108 20.5221 30.9208 18.8504 31.1219 19.5436C31.1479 19.6209 31.1532 19.705 31.1371 19.7856C31.121 19.8662 31.0842 19.9397 31.0314 19.997C31.1213 19.9662 31.2092 19.9283 31.2944 19.8836C31.9025 19.555 32.251 18.8844 32.8223 18.5142C33.6834 17.9475 34.5411 18.637 35.4273 18.6861C34.9482 18.8485 34.4925 18.6861 33.9799 18.7503C33.3014 18.8447 32.7285 19.317 32.2359 19.8251C31.8272 20.2444 31.4469 20.7393 30.8957 20.9074C30.6954 20.9645 30.4872 20.9773 30.2826 20.9452C30.4384 21.2417 30.8907 21.5534 32.2409 21.4042C32.4336 21.3807 32.6279 21.3807 32.8206 21.4042C33.68 20.9131 34.4691 20.082 35.0755 19.3566C35.113 19.311 35.1595 19.276 35.2112 19.2546C34.8946 19.844 34.6131 20.4578 34.206 20.9697C33.9661 21.2675 33.7062 21.5441 33.4287 21.7971C33.5962 22.1748 33.5142 22.5791 34.6517 22.0672C36.5615 21.2077 36.7173 18.7371 36.7173 18.7371C36.3873 14.931 31.864 12.7172 31.2509 13.7693C30.884 14.3926 31.0833 14.7137 31.2777 14.9914C31.4184 14.9196 31.5574 14.8403 31.6982 14.7629C31.8506 14.7591 32.0081 14.744 32.1756 14.7232Z" fill="#A9CB1C"/>
<path d="M32.2343 19.8232C32.7268 19.3188 33.2981 18.8428 33.9782 18.7484C34.4908 18.6766 34.9465 18.8466 35.4257 18.6842C34.5411 18.6332 33.6817 17.9532 32.8206 18.5123C32.2493 18.8901 31.9026 19.5531 31.2928 19.8817C31.2075 19.9264 31.1196 19.9642 31.0297 19.995C30.7768 20.2973 30.1921 20.3936 30.1921 20.5617C30.1912 20.6938 30.2207 20.824 30.2775 20.9395C30.4822 20.9716 30.6904 20.9588 30.8907 20.9017C31.4452 20.7374 31.8238 20.2425 32.2343 19.8232Z" fill="#8BAA07"/>
<path d="M31.926 17.2184C32.3878 16.9624 32.8977 16.8363 33.4121 16.8511C33.9264 16.8659 34.43 17.0211 34.8795 17.3034C34.5313 16.9637 34.114 16.7265 33.6647 16.6128C33.2154 16.4991 32.7482 16.5125 32.3046 16.6517C31.7417 16.8161 31.2241 17.0767 30.683 17.2373C30.5355 17.3506 30.3881 17.464 30.2373 17.5735C29.9676 18.1572 29.0647 18.229 29.1266 18.994C29.1663 18.9958 29.2059 18.99 29.2439 18.977C30.2658 18.62 30.9711 17.7152 31.926 17.2184Z" fill="#8BAA07"/>
<path d="M31.4368 15.543C31.2358 16.0228 30.0178 14.8573 29.3427 15.6355C29.3728 15.6789 29.4104 15.7149 29.4533 15.7413C30.1502 16.172 30.8873 16.036 31.5893 15.6846C32.06 15.4485 32.5006 15.0613 33.0467 15.118C33.4689 15.1614 33.8492 15.4429 34.1876 15.7413C33.7855 14.9385 33.0534 14.608 32.1773 14.7232C32.0097 14.744 31.8523 14.7591 31.6998 14.7629C31.5591 14.8403 31.4184 14.9197 31.2793 14.9914C31.405 15.1879 31.5289 15.3371 31.4368 15.543Z" fill="#8BAA07"/>
<path d="M35.2045 19.2471C35.1528 19.2685 35.1063 19.3034 35.0688 19.3491C34.4624 20.0801 33.675 20.9036 32.8139 21.3966C33.1841 21.4457 33.3299 21.6138 33.412 21.7914C33.6895 21.5385 33.9494 21.2619 34.1893 20.9641C34.6048 20.4503 34.8795 19.8364 35.2045 19.2471Z" fill="#8BAA07"/>
<path d="M37.2684 26.5872C37.2684 26.5872 41.1919 25.0478 41.3327 23.446C41.4734 21.8442 40.5084 22.783 40.2823 22.2126C40.0561 21.6421 41.6108 20.7487 40.8535 20.0649C40.0963 19.3811 39.7361 20.9149 39.1917 20.7827C38.6472 20.6505 39.3424 18.8466 38.4813 18.8674C37.6202 18.8881 38.1061 19.8949 37.4577 20.0555C36.8094 20.216 36.543 18.5651 35.7825 19.3301C35.0219 20.0951 36.3437 21.1567 35.7188 21.4079C35.0939 21.6591 34.4707 19.876 34.2278 21.5212C33.9849 23.1665 36.6737 26.4475 37.2684 26.5872Z" fill="#7AA901"/>
<path d="M37.2684 26.5873C37.2684 26.5873 38.3892 25.2764 38.9286 24.9345C39.4681 24.5926 39.5032 24.4113 39.9154 23.9259C40.3275 23.4404 40.4012 23.0721 40.3459 23.1174C40.2906 23.1627 39.4379 24.2111 38.8382 24.1299C38.2384 24.0486 38.7142 23.4007 38.9286 22.9172C39.1431 22.4336 38.9471 21.9406 39.329 21.6837C39.711 21.4269 39.9505 20.7979 39.9505 20.7979C39.9505 20.7979 38.9672 22.0577 38.5366 22.309C38.1061 22.5602 38.4813 21.5251 38.5065 21.1416C38.4992 20.8362 38.4323 20.5363 38.3105 20.2633C38.3105 20.2633 37.9519 22.4506 37.6035 22.4827C37.255 22.5149 37.2936 20.9716 37.1009 20.6713C36.9082 20.371 36.6335 22.0332 36.7843 22.2731C36.935 22.513 37.5214 23.5065 37.2869 23.5046C37.0523 23.5027 36.4241 22.5791 35.9785 22.3845C35.5799 22.1806 35.1967 21.9405 34.8326 21.6667C34.8326 21.6667 35.8377 22.8095 36.3856 23.4631C36.9334 24.1166 37.3271 24.2186 37.1847 24.723C37.0423 25.2273 37.2684 26.5873 37.2684 26.5873Z" fill="#759B00"/>
<path d="M37.379 18.7371C37.9776 18.7371 38.4629 18.0394 38.4629 17.1788C38.4629 16.3181 37.9776 15.6204 37.379 15.6204C36.7804 15.6204 36.2951 16.3181 36.2951 17.1788C36.2951 18.0394 36.7804 18.7371 37.379 18.7371Z" fill="#362F44"/>
<path d="M37.9972 16.6989C37.9663 16.5059 37.8879 16.3266 37.771 16.1814C37.756 16.1616 37.7375 16.1455 37.7167 16.1342C37.696 16.1229 37.6733 16.1165 37.6502 16.1155C37.6272 16.1145 37.6042 16.1189 37.5827 16.1284C37.5612 16.1379 37.5417 16.1523 37.5253 16.1707C37.509 16.1891 37.4962 16.2111 37.4878 16.2353C37.4794 16.2596 37.4755 16.2855 37.4764 16.3115C37.4773 16.3375 37.4829 16.3631 37.493 16.3865C37.503 16.4099 37.5173 16.4308 37.5348 16.4477C37.6105 16.5473 37.6593 16.6692 37.6755 16.799C37.6814 16.823 37.6913 16.8454 37.7048 16.865C37.7183 16.8846 37.7351 16.901 37.7543 16.9133C37.7734 16.9256 37.7945 16.9335 37.8163 16.9366C37.8382 16.9397 37.8604 16.9379 37.8816 16.9313C37.9242 16.9176 37.9602 16.8855 37.9819 16.842C38.0036 16.7985 38.0091 16.747 37.9972 16.6989Z" fill="#776F93"/>
<path d="M37.9134 17.0767C37.869 17.0767 37.8264 17.0966 37.795 17.132C37.7636 17.1675 37.7459 17.2155 37.7459 17.2656C37.7459 17.3157 37.7636 17.3638 37.795 17.3992C37.8264 17.4346 37.869 17.4545 37.9134 17.4545C37.9579 17.4545 38.0005 17.4346 38.0319 17.3992C38.0633 17.3638 38.081 17.3157 38.081 17.2656C38.081 17.2155 38.0633 17.1675 38.0319 17.132C38.0005 17.0966 37.9579 17.0767 37.9134 17.0767Z" fill="#776F93"/>
<path d="M30.4831 23.7333C31.2411 23.6324 31.7988 23.0073 31.7286 22.337C31.6585 21.6667 30.9871 21.205 30.229 21.3059C29.471 21.4068 28.9133 22.0319 28.9835 22.7022C29.0536 23.3725 29.725 23.8341 30.4831 23.7333Z" fill="#362F44"/>
<path d="M30.8505 23.1514C31.0166 23.0942 31.1652 22.9855 31.2793 22.8378C31.3069 22.7985 31.3194 22.7484 31.3143 22.6986C31.3091 22.6489 31.2866 22.6035 31.2517 22.5724C31.2168 22.5413 31.1724 22.5272 31.1283 22.533C31.0841 22.5389 31.0439 22.5642 31.0163 22.6036C30.9363 22.6964 30.8347 22.7619 30.7231 22.7925C30.6821 22.8113 30.6493 22.8478 30.6321 22.8938C30.6148 22.9398 30.6144 22.9917 30.631 23.038C30.6384 23.062 30.6501 23.084 30.6653 23.1028C30.6805 23.1216 30.6989 23.1367 30.7193 23.1473C30.7398 23.1579 30.762 23.1637 30.7845 23.1644C30.8071 23.1651 30.8295 23.1607 30.8505 23.1514Z" fill="#776F93"/>
<path d="M30.5003 23.1041C30.4952 23.054 30.4727 23.0083 30.4377 22.9769C30.4026 22.9456 30.358 22.9312 30.3136 22.937C30.2691 22.9427 30.2285 22.9682 30.2007 23.0077C30.1729 23.0472 30.1602 23.0975 30.1653 23.1476C30.1704 23.1977 30.1929 23.2434 30.228 23.2748C30.263 23.3061 30.3077 23.3205 30.3521 23.3148C30.3965 23.309 30.4371 23.2836 30.4649 23.2441C30.4927 23.2046 30.5055 23.1542 30.5003 23.1041Z" fill="#776F93"/>
<path d="M30.912 15.0039C31.2546 14.2349 31.0987 13.3658 30.5638 13.0629C30.0289 12.7599 29.3175 13.1378 28.9749 13.9068C28.6322 14.6759 28.7881 15.545 29.3231 15.8479C29.858 16.1509 30.5694 15.773 30.912 15.0039Z" fill="#362F44"/>
<path d="M30.6913 14.3379C30.7394 14.149 30.7394 13.9487 30.6913 13.7599C30.6773 13.7123 30.6471 13.6729 30.6074 13.6504C30.5676 13.6279 30.5216 13.6241 30.4794 13.6399C30.4372 13.6557 30.4023 13.6897 30.3823 13.7345C30.3624 13.7794 30.359 13.8313 30.373 13.8789C30.3994 14.0039 30.3942 14.1348 30.3579 14.2566C30.3536 14.2811 30.3535 14.3063 30.3578 14.3307C30.3621 14.3552 30.3706 14.3784 30.3829 14.3992C30.3952 14.4199 30.4111 14.4377 30.4295 14.4515C30.4479 14.4652 30.4686 14.4748 30.4903 14.4795C30.5117 14.4851 30.534 14.4859 30.5557 14.4818C30.5774 14.4777 30.5982 14.4688 30.6168 14.4557C30.6355 14.4425 30.6517 14.4253 30.6645 14.4051C30.6773 14.3849 30.6864 14.3621 30.6913 14.3379Z" fill="#776F93"/>
<path d="M30.4551 14.6419C30.4354 14.6308 30.414 14.6241 30.392 14.6223C30.37 14.6205 30.3479 14.6235 30.327 14.6313C30.3061 14.6391 30.2867 14.6515 30.2701 14.6678C30.2534 14.684 30.2397 14.7038 30.2298 14.726C30.2199 14.7482 30.214 14.7724 30.2124 14.7972C30.2108 14.8219 30.2135 14.8468 30.2204 14.8704C30.2273 14.894 30.2383 14.9158 30.2527 14.9346C30.2671 14.9535 30.2847 14.9689 30.3044 14.98C30.3441 15.0026 30.3902 15.0064 30.4325 14.9906C30.4747 14.9749 30.5097 14.9408 30.5297 14.896C30.5497 14.8512 30.553 14.7992 30.5391 14.7516C30.5251 14.7039 30.4949 14.6645 30.4551 14.6419Z" fill="#776F93"/>
<path d="M24.2013 21.3891C24.1376 20.4541 23.5161 20.1084 22.841 19.7684C22.4104 19.5512 22.1307 19.3906 22.0167 18.8239C21.9631 18.5519 22.0167 18.2573 21.9414 17.9891C21.9014 17.7871 21.8222 17.5977 21.7095 17.4344C21.5969 17.271 21.4535 17.1379 21.2897 17.0446C20.5794 16.6536 19.8003 17.1239 19.5893 17.9588C19.4217 18.6237 19.7015 19.2924 19.0967 19.7911C18.7902 20.0442 18.3429 19.9913 18.0363 20.2992C17.4583 20.8791 17.594 21.9198 17.9508 22.5979C18.2377 23.1423 18.6883 23.5524 19.2207 23.7539H19.2442C19.5258 23.8592 19.8222 23.9059 20.1187 23.8918C20.1608 23.8896 20.2022 23.8787 20.2409 23.8597C21.9346 23.956 24.3554 23.6519 24.2013 21.3891ZM21.9179 23.0456C21.1177 23.1729 20.3057 23.1729 19.5055 23.0456C18.8722 22.8265 18.2943 22.2466 18.3144 21.4533C18.3395 20.5088 19.214 20.6845 19.6998 20.2822C20.0533 19.9894 20.1672 19.5795 20.2024 19.1054C20.2259 18.8145 20.1304 18.4216 20.2326 18.1609C21.0345 17.7832 21.3991 17.9318 21.3265 18.6067C21.3269 18.7288 21.3353 18.8506 21.3517 18.9713C21.3898 19.3866 21.5701 19.7688 21.8542 20.0366C22.33 20.4673 23.2883 20.5032 23.4977 21.2474C23.8093 22.3335 22.6215 22.9096 21.9179 23.0456Z" fill="#F7C806"/>
<path d="M26.3356 20.762C26.2988 21.7574 25.9017 22.5224 25.1361 22.8492C25.4494 22.5186 25.7526 22.1371 25.8565 21.6724C25.9905 21.0717 25.7174 20.5221 25.5817 19.9611C25.3807 19.1262 25.374 18.2837 25.8565 17.5716C25.8859 17.5278 25.923 17.4911 25.9654 17.464C25.9303 17.4109 25.8911 17.3616 25.8481 17.3166C25.0105 16.4383 25.2433 18.4972 24.3906 18.297C24.2961 18.2756 24.2069 18.2311 24.1293 18.1666C24.203 18.3555 24.2801 18.5312 24.3554 18.7125C24.4141 19.3396 24.5632 19.9573 24.6235 20.6014C24.6793 21.1193 24.62 21.6448 24.451 22.1305C24.282 22.6161 24.0085 23.0468 23.6552 23.3837C23.9723 22.9252 24.1859 22.3867 24.2775 21.8145C24.3691 21.2423 24.3361 20.6536 24.1812 20.099C23.8914 18.9656 23.2045 18.0363 23.0454 16.8444C23.0387 16.8 23.0387 16.7547 23.0454 16.7103C22.9502 16.7059 22.855 16.716 22.7623 16.7405C21.6348 17.0163 22.9013 18.7295 22.2597 18.8504C22.188 18.8676 22.1134 18.8607 22.0452 18.8305C21.977 18.8002 21.9181 18.7481 21.876 18.6804C21.8897 18.7851 21.9099 18.8886 21.9364 18.9902C22.1324 19.7193 22.6668 20.2085 22.9047 20.8999C23.2632 21.9444 22.5361 22.7887 22.3585 23.7766C22.2898 23.21 22.5076 22.7358 22.526 22.1541C22.5461 21.3834 22.2161 20.6732 21.8559 20.048C21.551 19.5285 21.1741 19.0299 21.1104 18.3876C21.0909 18.1556 21.1114 17.9215 21.1707 17.6982C20.8876 17.8266 20.5459 18.2837 20.4722 19.81C20.4649 20.0281 20.4368 20.2446 20.3884 20.456C20.6883 21.4892 21.293 22.4922 21.8409 23.2798C21.8751 23.3284 21.8986 23.3853 21.9095 23.4461C21.4421 23.0041 20.9463 22.5961 20.5593 22.0577C20.3343 21.7446 20.1309 21.4125 19.9511 21.0642C19.601 21.2002 19.2526 21.0396 19.529 22.3864C19.993 24.6531 22.1357 25.1952 22.1357 25.1952C25.5131 25.4181 28.1399 20.7223 27.3123 19.8742C26.8215 19.3717 26.5015 19.5512 26.2368 19.7174C26.2787 19.8855 26.3272 20.0517 26.3742 20.2217C26.3473 20.3936 26.3356 20.5731 26.3356 20.762Z" fill="#A9CB1C"/>
<path d="M21.8509 20.0517C22.2195 20.677 22.5478 21.3872 22.521 22.1578C22.5059 22.7415 22.2882 23.2213 22.3535 23.7804C22.5327 22.8019 23.2598 21.9482 22.8996 20.9036C22.6617 20.2123 22.1257 19.7212 21.9313 18.994C21.9048 18.8924 21.8847 18.7889 21.871 18.6842C21.6448 18.3555 21.6499 17.6812 21.4991 17.6642C21.3864 17.6449 21.2712 17.6579 21.164 17.702C21.1047 17.9252 21.0842 18.1594 21.1037 18.3914C21.1691 19.0336 21.5443 19.5323 21.8509 20.0517Z" fill="#8BAA07"/>
<path d="M24.1812 20.0989C24.3361 20.6536 24.3691 21.2423 24.2775 21.8145C24.1859 22.3867 23.9723 22.9252 23.6552 23.3837C24.0058 23.0471 24.277 22.6179 24.4448 22.1345C24.6126 21.651 24.6717 21.1282 24.6168 20.6127C24.5582 19.9611 24.4091 19.3434 24.3487 18.7238C24.2717 18.535 24.1946 18.3612 24.1226 18.178C23.6518 17.7888 23.7272 16.7688 23.0454 16.7235C23.0387 16.7679 23.0387 16.8132 23.0454 16.8576C23.2045 18.042 23.8914 18.9656 24.1812 20.0989Z" fill="#8BAA07"/>
<path d="M25.7224 19.8137C25.3338 19.5172 26.5383 18.3366 25.9587 17.4658C25.9162 17.493 25.8792 17.5296 25.8498 17.5735C25.3673 18.2837 25.3723 19.1262 25.575 19.9629C25.7107 20.5296 25.9821 21.0717 25.8498 21.6743C25.7476 22.1389 25.4427 22.5205 25.1294 22.851C25.8933 22.5243 26.292 21.7593 26.3289 20.7638C26.3289 20.5749 26.3473 20.3955 26.3657 20.2255C26.3188 20.0574 26.2703 19.8893 26.2284 19.7211C26.0474 19.8345 25.8916 19.9421 25.7224 19.8137Z" fill="#8BAA07"/>
<path d="M21.9045 23.4498C21.8936 23.3891 21.87 23.3321 21.8358 23.2836C21.288 22.4978 20.6849 21.4929 20.3834 20.4597C20.2828 20.8639 20.1153 21.0018 19.9461 21.066C20.1259 21.4143 20.3292 21.7465 20.5542 22.0596C20.9395 22.5998 21.4354 23.0059 21.9045 23.4498Z" fill="#8BAA07"/>
<path d="M28.748 26.2302C28.748 26.2302 29.9207 21.7366 28.8469 20.675C27.773 19.6135 27.8903 21.0528 27.3391 20.9187C26.788 20.7846 27.0577 18.8409 26.1229 19.145C25.1881 19.4491 26.086 20.6561 25.6739 21.0868C25.2618 21.5175 24.3655 19.8231 23.8797 20.624C23.3938 21.4249 24.4024 21.5685 24.141 22.2541C23.8797 22.9398 22.5344 22.2258 22.645 23.3629C22.7556 24.5 24.2901 23.9107 24.1025 24.6266C23.9149 25.3425 22.2714 24.8797 23.3168 26.0602C24.3622 27.2408 28.3024 26.6949 28.748 26.2302Z" fill="#7AA901"/>
<path d="M28.748 26.2303C28.748 26.2303 28.4548 24.4396 28.5218 23.7464C28.5888 23.0532 28.4783 22.9153 28.3694 22.2542C28.2605 21.5931 28.0343 21.3097 28.0343 21.3891C28.0343 21.4684 28.2957 22.8586 27.8852 23.363C27.4748 23.8673 27.2872 23.0513 27.0627 22.5753C26.8382 22.0993 26.3691 21.9916 26.406 21.4911C26.4428 20.9905 26.1279 20.405 26.1279 20.405C26.1279 20.405 26.4629 22.0407 26.3892 22.5753C26.3155 23.1099 25.7911 22.1711 25.5298 21.9236C25.3053 21.7529 25.0502 21.64 24.7826 21.5931C24.7826 21.5931 26.1513 23.1949 25.9721 23.5311C25.7928 23.8673 24.7072 22.9417 24.3722 22.9417C24.0371 22.9417 25.0825 24.1638 25.3438 24.1638C25.6052 24.1638 26.6623 24.2054 26.5266 24.417C26.3909 24.6285 25.3539 24.6701 24.9585 24.9647C24.5795 25.2114 24.1834 25.423 23.7741 25.5975C23.7741 25.5975 25.1813 25.3444 25.9721 25.2197C26.7628 25.0951 27.066 24.7985 27.3458 25.2197C27.6256 25.641 28.748 26.2303 28.748 26.2303Z" fill="#759B00"/>
<path d="M40.428 15.9793C39.6139 16.1681 39.391 16.9124 39.18 17.7114C39.0443 18.2214 38.9421 18.5557 38.4529 18.7559C38.22 18.8504 37.9503 18.839 37.7292 18.9448C37.5583 19.017 37.4037 19.1308 37.2763 19.278C37.1489 19.4253 37.0518 19.6023 36.992 19.7967C36.7424 20.641 37.2567 21.4514 38.0173 21.5779C38.6238 21.6799 39.1749 21.2795 39.6926 21.8896C39.9556 22.1994 39.9657 22.7056 40.2773 23.0097C40.8619 23.5764 41.7599 23.293 42.3094 22.8038C42.7505 22.4123 43.0525 21.8553 43.1604 21.2341C43.1604 21.2341 43.1604 21.2171 43.1604 21.2077C43.2138 20.8786 43.2138 20.5413 43.1604 20.2123C43.1533 20.1649 43.1385 20.1195 43.1169 20.0781C42.9812 18.176 42.3982 15.5108 40.428 15.9793ZM42.182 18.3158C42.4007 19.1935 42.509 20.1015 42.5037 21.0131C42.3931 21.7498 41.9592 22.4714 41.259 22.5526C40.4297 22.647 40.4649 21.6478 40.0477 21.1567C39.7445 20.7997 39.3776 20.726 38.9488 20.7468C38.6908 20.76 38.3574 20.9168 38.1111 20.8356C37.6722 19.9881 37.7554 19.5612 38.3607 19.5549C38.4684 19.5387 38.5748 19.5135 38.679 19.4794C39.0404 19.3807 39.3531 19.1264 39.5502 18.771C39.8668 18.1836 39.773 17.1069 40.4012 16.7764C41.3092 16.2928 41.9726 17.5451 42.182 18.3158Z" fill="#F7C806"/>
<path d="M32.6916 16.3892C33.2444 15.6884 33.0266 14.9442 32.7837 14.1584C32.6162 13.6579 32.5308 13.3197 32.8189 12.8362C32.9563 12.6039 33.1741 12.4395 33.2997 12.1959C33.3993 12.0235 33.464 11.8286 33.4892 11.6249C33.5144 11.4211 33.4995 11.2137 33.4455 11.0172C33.2026 10.1691 32.3616 9.86309 31.6814 10.2616C31.1403 10.5865 30.9074 11.2779 30.1737 11.1324C29.7984 11.0588 29.5236 10.6583 29.1132 10.6224C28.3426 10.5544 27.773 11.3874 27.5854 12.1486C27.4369 12.7589 27.4874 13.409 27.7278 13.9809L27.7378 14.0054C27.8663 14.3069 28.0423 14.5795 28.2571 14.8101C28.2879 14.8429 28.3236 14.8691 28.3627 14.8875C29.4801 16.3212 31.353 18.0835 32.6916 16.3892ZM30.0497 15.6827C29.4129 15.1226 28.849 14.4645 28.3744 13.7277C28.0745 13.061 28.0394 12.1902 28.5671 11.65C29.1836 11.0323 29.6861 11.8521 30.2742 11.9768C30.7064 12.0618 31.0465 11.8691 31.3748 11.5706C31.5759 11.3818 31.7618 11.038 32.0031 10.9379C32.8027 11.3257 32.9608 11.7249 32.4772 12.1354C32.3997 12.2206 32.3281 12.3121 32.2627 12.4093C32.0216 12.7291 31.9013 13.1428 31.9277 13.5615C31.983 14.2472 32.6246 15.05 32.2929 15.7375C31.8171 16.7254 30.626 16.1606 30.0514 15.6809L30.0497 15.6827Z" fill="#F7C806"/>
<path d="M37.2567 24.4774C37.3221 23.5424 36.7542 23.0928 36.1343 22.6376C35.7389 22.3467 35.4843 22.1427 35.4508 21.5553C35.4357 21.2776 35.5211 20.9886 35.491 20.7166C35.478 20.5113 35.4251 20.3118 35.3359 20.1322C35.2467 19.9526 35.1235 19.7975 34.975 19.6777C34.3267 19.1677 33.4924 19.4888 33.1691 20.2841C32.9111 20.9112 33.097 21.6214 32.4303 22.0086C32.0952 22.1975 31.658 22.0747 31.3129 22.324C30.6629 22.7944 30.6528 23.8484 30.9125 24.5813C31.1211 25.1691 31.5099 25.653 32.0081 25.945L32.0299 25.9583C32.2914 26.1105 32.5752 26.2084 32.8675 26.2473C32.9096 26.2527 32.9521 26.2495 32.9932 26.2378C34.6651 26.6156 37.0976 26.7403 37.2567 24.4774ZM34.7723 25.7146C33.9638 25.7033 33.1608 25.564 32.3867 25.3009C31.7903 24.9742 31.2995 24.2998 31.4284 23.5197C31.5809 22.596 32.4236 22.9172 32.958 22.6036C33.3483 22.3769 33.5158 21.9916 33.618 21.5307C33.68 21.2474 33.6415 20.8432 33.7856 20.5976C34.6299 20.3621 34.9694 20.5724 34.8041 21.2285C34.7877 21.3491 34.7793 21.471 34.779 21.5931C34.7631 22.0087 34.891 22.4151 35.1358 22.7264C35.5463 23.2345 36.4895 23.4385 36.5933 24.211C36.7407 25.3406 35.4876 25.7033 34.774 25.7127L34.7723 25.7146Z" fill="#D34040"/>
<path d="M30.1586 17.3601C29.6995 16.5781 29.0077 16.6159 28.2705 16.6876C27.7998 16.733 27.4865 16.7481 27.1414 16.3099C26.9739 16.1002 26.8918 15.8225 26.7159 15.6204C26.5937 15.4677 26.4431 15.3472 26.2748 15.2675C26.1066 15.1878 25.9249 15.151 25.7425 15.1595C24.9535 15.2068 24.4744 16.0454 24.6503 16.8898C24.7893 17.5641 25.3204 17.9929 25.0088 18.7616C24.8496 19.1507 24.4358 19.3491 24.3001 19.7854C24.0438 20.6071 24.6117 21.4439 25.2165 21.8424C25.7018 22.1613 26.2725 22.2732 26.8248 22.1579H26.8482C27.1411 22.0959 27.4216 21.9743 27.6758 21.799C27.7119 21.7742 27.7437 21.7422 27.7696 21.7045C29.2824 20.8432 31.2676 19.2527 30.1586 17.3601ZM28.8753 20.0574C28.2316 20.607 27.5228 21.052 26.7695 21.3796C26.1212 21.5345 25.3673 21.3456 25.0423 20.6392C24.6586 19.8043 25.4963 19.4737 25.7492 18.8561C25.9318 18.4065 25.8548 17.9872 25.6839 17.5528C25.5784 17.2864 25.3271 16.9861 25.3019 16.7046C25.8391 15.9327 26.2217 15.8628 26.4495 16.495C26.5025 16.6012 26.5624 16.7029 26.6288 16.7991C26.8429 17.1419 27.1677 17.3765 27.5334 17.4526C28.1348 17.5679 28.9892 17.0749 29.4918 17.6113C30.2222 18.399 29.4332 19.5531 28.8753 20.0574Z" fill="#D34040"/>
<path d="M24.9472 20.5712C25.4509 20.2065 25.5248 19.3237 25.1123 18.5996C24.6999 17.8754 23.9571 17.584 23.4535 17.9488C22.9498 18.3135 22.8758 19.1962 23.2883 19.9204C23.7008 20.6446 24.4435 20.9359 24.9472 20.5712Z" fill="#362F44"/>
<path d="M24.4928 18.4821C24.3742 18.3381 24.2221 18.2347 24.0539 18.1836C24.0319 18.1783 24.0092 18.1779 23.987 18.1825C23.9649 18.187 23.9438 18.1965 23.9249 18.2102C23.906 18.224 23.8896 18.2418 23.8769 18.2627C23.8641 18.2836 23.8551 18.3071 23.8503 18.3319C23.8456 18.3567 23.8452 18.3823 23.8493 18.4073C23.8533 18.4322 23.8617 18.4561 23.8739 18.4774C23.8861 18.4987 23.902 18.5171 23.9205 18.5315C23.939 18.5459 23.9598 18.5561 23.9818 18.5614C24.0931 18.5991 24.1925 18.6719 24.2683 18.7711C24.3014 18.8043 24.3449 18.8214 24.3892 18.8186C24.4335 18.8157 24.4749 18.7932 24.5045 18.756C24.5203 18.7374 24.5325 18.7155 24.5405 18.6915C24.5484 18.6674 24.552 18.6418 24.5509 18.6162C24.5498 18.5906 24.5441 18.5654 24.5341 18.5424C24.5241 18.5193 24.51 18.4988 24.4928 18.4821Z" fill="#776F93"/>
<path d="M24.6034 18.8579C24.5686 18.8862 24.5447 18.9285 24.5367 18.976C24.5287 19.0235 24.5372 19.0727 24.5604 19.1134C24.5836 19.154 24.6197 19.1831 24.6614 19.1947C24.703 19.2062 24.747 19.1992 24.7843 19.1753C24.8191 19.147 24.843 19.1048 24.851 19.0572C24.859 19.0097 24.8505 18.9606 24.8273 18.9199C24.8041 18.8792 24.7679 18.8501 24.7263 18.8386C24.6846 18.827 24.6406 18.834 24.6034 18.8579Z" fill="#776F93"/>
<path d="M34.7974 16.6744C34.588 16.4421 34.1139 16.274 33.8308 16.4421C33.6633 16.5422 33.5979 16.8368 33.5343 17.0257C33.4688 17.2251 33.4189 17.4305 33.3852 17.6396C33.3616 17.7353 33.3714 17.8375 33.4125 17.9253C33.4537 18.013 33.523 18.0798 33.6063 18.1118C33.6233 18.1174 33.6407 18.1212 33.6582 18.1232C33.6775 18.1498 33.7015 18.1717 33.7286 18.1874C33.7566 18.2008 33.7858 18.2109 33.8157 18.2176H33.8325H33.8442C33.8828 18.2271 33.9228 18.2271 33.9615 18.2176C34.2256 18.1701 34.4741 18.045 34.6818 17.855C35.0035 17.6226 35.0923 17.0012 34.7974 16.6744Z" fill="#F2B00A"/>
<path d="M34.4875 16.5101C34.2262 16.3571 33.7001 16.3023 33.4824 16.5554C33.3711 16.7165 33.3168 16.9184 33.3299 17.1221C33.3196 17.3345 33.3258 17.5475 33.3483 17.7586C33.3509 17.8579 33.387 17.9524 33.4493 18.0226C33.5116 18.0928 33.5953 18.1336 33.6834 18.1364C33.7007 18.1381 33.718 18.1381 33.7353 18.1364C33.7606 18.1554 33.7892 18.1682 33.8191 18.1742C33.8492 18.1776 33.8795 18.1776 33.9095 18.1742H33.9464C33.986 18.1729 34.0248 18.1619 34.0603 18.1421C34.3003 18.0084 34.5049 17.8058 34.6534 17.5546C34.8795 17.2071 34.8544 16.7254 34.4875 16.5101Z" fill="#FFD217"/>
<path d="M27.6758 22.8605C27.4044 22.989 27.0844 23.4272 27.1129 23.7766C27.1297 23.9901 27.3475 24.1714 27.4781 24.3093C27.6163 24.454 27.7654 24.5848 27.9238 24.7003C27.9929 24.762 28.0804 24.7915 28.1683 24.7827C28.2562 24.7739 28.3377 24.7275 28.3962 24.6531C28.4069 24.6377 28.4165 24.6212 28.4247 24.604C28.4536 24.5938 28.4804 24.5771 28.5034 24.5548C28.5252 24.5313 28.5449 24.5054 28.562 24.4774L28.5721 24.4623V24.451C28.5962 24.4158 28.6134 24.3752 28.6223 24.332C28.6847 24.0392 28.6778 23.733 28.6022 23.4442C28.5386 23.0116 28.0645 22.6811 27.6758 22.8605Z" fill="#F2B00A"/>
<path d="M27.4312 23.1211C27.205 23.3346 26.9588 23.8597 27.0794 24.1921C27.1692 24.3711 27.3149 24.5058 27.4882 24.5699C27.6579 24.662 27.8345 24.7372 28.0159 24.7947C28.0983 24.8305 28.1897 24.8293 28.2714 24.7913C28.353 24.7534 28.4187 24.6816 28.4548 24.5907C28.4613 24.5724 28.4664 24.5534 28.4699 24.534C28.4946 24.5151 28.5157 24.4907 28.5319 24.4623C28.5464 24.4322 28.5582 24.4006 28.567 24.3678C28.567 24.3678 28.567 24.3565 28.567 24.3508V24.3376C28.5811 24.2954 28.5868 24.2503 28.5838 24.2054C28.5665 23.9044 28.4792 23.6138 28.3308 23.3629C28.1516 22.9795 27.7478 22.8227 27.4312 23.1211Z" fill="#FFD217"/>
<path d="M39.1146 22.6942C38.9052 22.4619 38.4311 22.2938 38.148 22.4619C37.9805 22.562 37.9151 22.8567 37.8515 23.0456C37.786 23.2449 37.7361 23.4503 37.7024 23.6595C37.6788 23.7551 37.6886 23.8573 37.7297 23.9451C37.7709 24.0329 37.8402 24.0996 37.9235 24.1317C37.9405 24.1372 37.9579 24.141 37.9754 24.143C37.9947 24.1697 38.0187 24.1915 38.0458 24.2072C38.0738 24.2206 38.103 24.2308 38.1329 24.2375H38.1497H38.1614C38.2 24.247 38.24 24.247 38.2787 24.2375C38.5428 24.1899 38.7913 24.0649 38.999 23.8748C39.319 23.6425 39.4028 23.0229 39.1146 22.6942Z" fill="#F2B00A"/>
<path d="M38.8047 22.5318C38.5433 22.3788 38.0173 22.324 37.7995 22.5771C37.6883 22.7383 37.6339 22.9402 37.647 23.1438C37.6368 23.3562 37.6429 23.5692 37.6655 23.7804C37.668 23.8797 37.7041 23.9741 37.7664 24.0443C37.8287 24.1146 37.9125 24.1553 38.0005 24.1581C38.0178 24.1599 38.0352 24.1599 38.0525 24.1581C38.0778 24.1771 38.1063 24.1899 38.1362 24.1959C38.1663 24.1994 38.1966 24.1994 38.2267 24.1959H38.2635C38.3031 24.1946 38.342 24.1836 38.3775 24.1638C38.6175 24.0301 38.822 23.8275 38.9705 23.5764C39.1983 23.2288 39.1699 22.7434 38.8047 22.5318Z" fill="#FFD217"/>
<path d="M36.3102 12.8758C36.1008 12.6435 35.6267 12.4754 35.3435 12.6435C35.176 12.7436 35.1107 13.0383 35.047 13.2272C34.9816 13.4265 34.9317 13.6319 34.8979 13.841C34.8744 13.9367 34.8842 14.0389 34.9253 14.1267C34.9664 14.2145 35.0357 14.2812 35.1191 14.3133C35.136 14.3188 35.1534 14.3226 35.171 14.3246C35.1903 14.3512 35.2142 14.3731 35.2414 14.3888C35.2694 14.4022 35.2986 14.4123 35.3285 14.419H35.3452H35.3569C35.3956 14.4286 35.4356 14.4286 35.4742 14.419C35.7384 14.3715 35.9868 14.2464 36.1946 14.0564C36.5146 13.8222 36.6033 13.2026 36.3102 12.8758Z" fill="#F2B00A"/>
<path d="M36.0003 12.7115C35.7389 12.5585 35.2129 12.5037 34.9951 12.7568C34.8839 12.918 34.8296 13.1198 34.8427 13.3235C34.8324 13.5359 34.8385 13.7489 34.8611 13.96C34.8636 14.0593 34.8997 14.1538 34.962 14.224C35.0243 14.2943 35.1081 14.335 35.1961 14.3378C35.2134 14.3396 35.2308 14.3396 35.2481 14.3378C35.2734 14.3568 35.3019 14.3696 35.3318 14.3756C35.3619 14.3791 35.3922 14.3791 35.4223 14.3756H35.4592C35.4987 14.3743 35.5376 14.3633 35.5731 14.3435C35.8131 14.2098 36.0176 14.0072 36.1661 13.756C36.3873 13.4085 36.3655 12.9212 36.0003 12.7115Z" fill="#FFD217"/>
<path d="M24.3605 15.3427C24.1511 15.1104 23.677 14.9423 23.3938 15.1104C23.2263 15.2105 23.161 15.5052 23.0973 15.6941C23.0319 15.8934 22.982 16.0988 22.9482 16.308C22.9247 16.4036 22.9345 16.5058 22.9756 16.5936C23.0167 16.6814 23.086 16.7481 23.1693 16.7802C23.1863 16.7857 23.2037 16.7895 23.2213 16.7915C23.2406 16.8182 23.2645 16.84 23.2916 16.8557C23.3197 16.8691 23.3489 16.8793 23.3788 16.886H23.3955H23.4072C23.4459 16.8955 23.4859 16.8955 23.5245 16.886C23.7887 16.8384 24.0371 16.7134 24.2449 16.5233C24.5665 16.2891 24.6603 15.6695 24.3605 15.3427Z" fill="#F2B00A"/>
<path d="M24.0505 15.1878C23.7892 15.0348 23.2631 14.98 23.0453 15.2331C22.9341 15.3943 22.8798 15.5962 22.8929 15.7998C22.8826 16.0122 22.8888 16.2252 22.9113 16.4364C22.9138 16.5357 22.95 16.6301 23.0123 16.7003C23.0745 16.7706 23.1583 16.8113 23.2464 16.8141C23.2636 16.8159 23.281 16.8159 23.2983 16.8141C23.3236 16.8331 23.3521 16.8459 23.3821 16.8519C23.4121 16.8554 23.4425 16.8554 23.4725 16.8519H23.5094C23.549 16.8506 23.5878 16.8396 23.6233 16.8198C23.8633 16.6861 24.0678 16.4835 24.2164 16.2324C24.4442 15.8754 24.4174 15.3937 24.0505 15.1878Z" fill="#FFD217"/>
<path d="M24.4555 26.7154C25.3798 25.7899 25.3231 24.0165 24.329 22.7545C23.3349 21.4925 21.7798 21.2197 20.8556 22.1452C19.9314 23.0707 19.988 24.844 20.9821 26.1061C21.9762 27.3681 23.5313 27.6409 24.4555 26.7154Z" fill="#7EA83B"/>
<path d="M20.7251 22.2863L21.3852 21.6157L25.049 26.1056L24.3018 26.8536" fill="#7EA83B"/>
<path d="M24.9192 26.2509C25.8434 25.3254 25.7867 23.5521 24.7926 22.2901C23.7985 21.0281 22.2434 20.7553 21.3192 21.6808C20.395 22.6063 20.4516 24.3796 21.4457 25.6416C22.4398 26.9037 23.995 27.1765 24.9192 26.2509Z" fill="#A2CB6B"/>
<path d="M24.6933 25.9643C25.5013 25.1551 25.4516 23.6045 24.5822 22.5008C23.7128 21.3972 22.353 21.1584 21.545 21.9675C20.737 22.7766 20.7868 24.3273 21.6562 25.4309C22.5256 26.5346 23.8854 26.7734 24.6933 25.9643Z" fill="#ECFFCF"/>
<path d="M22.2329 22.3807L22.0754 22.1748C22.0425 22.1413 21.9991 22.1239 21.9548 22.1264C21.9106 22.1289 21.869 22.151 21.8392 22.188C21.8095 22.2251 21.794 22.274 21.7962 22.3239C21.7984 22.3738 21.8181 22.4207 21.8509 22.4544L22.0084 22.6602C22.0413 22.6937 22.0846 22.7111 22.1289 22.7087C22.1732 22.7062 22.2148 22.684 22.2446 22.647C22.2743 22.6099 22.2897 22.561 22.2875 22.5111C22.2853 22.4612 22.2657 22.4143 22.2329 22.3807Z" fill="#B5E47C"/>
<path d="M21.8743 23.2968C21.8358 23.3006 21.7974 23.2892 21.7654 23.2647C21.7325 23.2312 21.6892 23.2138 21.6449 23.2163C21.6006 23.2188 21.559 23.2409 21.5292 23.2779C21.4995 23.315 21.4841 23.3639 21.4863 23.4138C21.4885 23.4637 21.5081 23.5107 21.541 23.5443C21.6392 23.6313 21.7611 23.6774 21.8861 23.6746C21.9305 23.6728 21.9725 23.6513 22.0028 23.6146C22.0331 23.5779 22.0493 23.5292 22.0477 23.4791C22.0462 23.429 22.027 23.3817 21.9945 23.3475C21.962 23.3133 21.9188 23.2951 21.8743 23.2968Z" fill="#B5E47C"/>
<path d="M21.8476 24.1034C21.7962 24.116 21.7477 24.1404 21.7052 24.1752C21.5376 24.3168 21.7052 24.6342 21.8861 24.4925C21.9035 24.4754 21.9251 24.4648 21.9481 24.4623C21.9905 24.4475 22.026 24.4143 22.0467 24.37C22.0674 24.3258 22.0717 24.274 22.0587 24.2262C22.052 24.2025 22.0412 24.1804 22.027 24.1614C22.0128 24.1424 21.9954 24.1267 21.9757 24.1153C21.9561 24.1039 21.9347 24.097 21.9127 24.0949C21.8907 24.0929 21.8686 24.0958 21.8476 24.1034Z" fill="#B5E47C"/>
<path d="M22.6115 25.1536C22.5874 25.1116 22.5496 25.082 22.5063 25.0714C22.4629 25.0608 22.4176 25.07 22.3803 25.0969C22.3039 25.1595 22.2508 25.2516 22.2312 25.3557C22.1893 25.5937 22.516 25.6787 22.5579 25.4407C22.5579 25.4218 22.5579 25.418 22.5579 25.4162C22.5768 25.403 22.5933 25.3858 22.6062 25.3654C22.6192 25.3451 22.6285 25.322 22.6335 25.2976C22.6385 25.2731 22.6391 25.2478 22.6353 25.2231C22.6315 25.1984 22.6234 25.1747 22.6115 25.1536Z" fill="#B5E47C"/>
<path d="M22.9214 25.3878C22.9042 25.4918 22.8986 25.5977 22.9046 25.7033C22.9197 25.945 23.2548 25.9337 23.2397 25.69C23.2316 25.6179 23.2316 25.5449 23.2397 25.4728C23.2849 25.2367 22.9599 25.1517 22.9214 25.3878Z" fill="#B5E47C"/>
<path d="M24.0254 25.605C23.9939 25.5601 23.9716 25.5078 23.96 25.452C23.9081 25.2159 23.5898 25.3293 23.6401 25.5654C23.659 25.6542 23.6938 25.7377 23.7423 25.8109C23.7663 25.8529 23.8041 25.8825 23.8475 25.8931C23.8908 25.9038 23.9361 25.8946 23.9734 25.8676C23.9923 25.8543 24.0086 25.837 24.0214 25.8165C24.0342 25.7961 24.0433 25.773 24.0481 25.7486C24.053 25.7241 24.0534 25.6989 24.0495 25.6742C24.0456 25.6496 24.0374 25.6261 24.0254 25.605Z" fill="#B5E47C"/>
<path d="M24.6989 25.1763C24.6666 25.1401 24.6384 25.0995 24.6151 25.0554C24.5028 24.8476 24.2197 25.0554 24.3336 25.2594C24.3737 25.3285 24.4209 25.3919 24.4744 25.4483C24.6268 25.6258 24.8513 25.3463 24.6989 25.1763Z" fill="#B5E47C"/>
<path d="M24.9753 24.264C24.9512 24.2219 24.9134 24.1924 24.8701 24.1817C24.8267 24.1711 24.7814 24.1803 24.7441 24.2073C24.7275 24.2111 24.7104 24.2111 24.6938 24.2073C24.4777 24.2073 24.4894 24.5851 24.7055 24.5851C24.7823 24.5844 24.8577 24.5624 24.925 24.5208C24.9614 24.4938 24.9869 24.4518 24.9963 24.4039C25.0057 24.3559 24.9981 24.3057 24.9753 24.264Z" fill="#B5E47C"/>
<path d="M24.6469 23.0683L24.4174 23.1816C24.375 23.1964 24.3395 23.2296 24.3188 23.2738C24.298 23.3181 24.2937 23.3699 24.3068 23.4177C24.3199 23.4655 24.3494 23.5055 24.3886 23.5289C24.4279 23.5523 24.4738 23.5571 24.5162 23.5424L24.7457 23.429C24.7882 23.4142 24.8236 23.3811 24.8444 23.3368C24.8651 23.2925 24.8694 23.2408 24.8563 23.1929C24.8432 23.1451 24.8138 23.1051 24.7745 23.0817C24.7352 23.0584 24.6893 23.0535 24.6469 23.0683Z" fill="#B5E47C"/>
<path d="M24.084 22.3788C24.0511 22.3454 24.0078 22.328 23.9635 22.3304C23.9192 22.3329 23.8776 22.3551 23.8478 22.3921L23.7473 22.5451C23.7176 22.5822 23.7022 22.631 23.7044 22.681C23.7066 22.7309 23.7262 22.7778 23.759 22.8114C23.7919 22.8449 23.8353 22.8623 23.8796 22.8598C23.9238 22.8573 23.9654 22.8352 23.9952 22.7982L24.0958 22.6452C24.1255 22.6081 24.1409 22.5592 24.1387 22.5093C24.1365 22.4594 24.1168 22.4125 24.084 22.3788Z" fill="#B5E47C"/>
<path d="M23.0655 22.0521L23.0353 22.2409C22.9984 22.4808 23.3251 22.5658 23.362 22.3259L23.3921 22.137C23.429 21.8991 23.1023 21.8122 23.0655 22.0521Z" fill="#B5E47C"/>
<path d="M23.4726 23.1721C23.3268 22.9719 23.1074 22.7547 22.8561 22.8246C22.7995 22.8404 22.7472 22.8713 22.7035 22.9147C22.6597 22.9581 22.6259 23.0127 22.6048 23.0739L22.5847 23.0928C22.5492 23.1378 22.5234 23.1915 22.5093 23.2496C22.3669 23.4763 22.4289 23.8635 22.5227 24.0845C22.5796 24.2301 22.671 24.3553 22.7869 24.4462C22.9027 24.5372 23.0385 24.5904 23.1794 24.6001C23.2174 24.5978 23.2548 24.5883 23.29 24.5718C23.3184 24.5739 23.347 24.5739 23.3754 24.5718C24.0422 24.4434 23.749 23.5499 23.4726 23.1721Z" fill="#FEFFFD"/>
<path d="M38.6866 25.9654C39.9451 25.0513 40.4226 23.3605 39.7532 22.1888C39.0838 21.0172 37.5209 20.8084 36.2624 21.7225C35.0039 22.6366 34.5264 24.3274 35.1958 25.4991C35.8652 26.6707 37.4281 26.8795 38.6866 25.9654Z" fill="#7EA83B"/>
<path d="M35.3017 25.6636L34.8141 24.8249L39.3123 21.4306L39.8517 22.3788" fill="#7EA83B"/>
<path d="M38.3523 25.3758C39.6108 24.4617 40.0883 22.7709 39.4189 21.5992C38.7495 20.4276 37.1866 20.2188 35.9281 21.1329C34.6696 22.047 34.1921 23.7378 34.8615 24.9095C35.5309 26.0811 37.0938 26.2899 38.3523 25.3758Z" fill="#A2CB6B"/>
<path d="M38.1999 25.109C39.3005 24.3096 39.7182 22.8312 39.133 21.8068C38.5477 20.7825 37.1811 20.6002 36.0805 21.3996C34.9799 22.1991 34.5621 23.6775 35.1474 24.7018C35.7326 25.7261 37.0993 25.9084 38.1999 25.109Z" fill="#ECFFCF"/>
<path d="M35.615 23.9976L35.4106 24.143C35.3934 24.1586 35.3791 24.1779 35.3685 24.1997C35.3579 24.2216 35.3512 24.2456 35.3489 24.2703C35.3466 24.2951 35.3486 24.3201 35.3549 24.3439C35.3611 24.3678 35.3715 24.39 35.3854 24.4094C35.3993 24.4288 35.4164 24.4449 35.4357 24.4568C35.4551 24.4688 35.4764 24.4763 35.4983 24.4789C35.5203 24.4815 35.5425 24.4792 35.5636 24.4722C35.5848 24.4651 35.6045 24.4534 35.6217 24.4377L35.826 24.2922C35.8432 24.2767 35.8576 24.2574 35.8681 24.2355C35.8787 24.2137 35.8854 24.1897 35.8877 24.165C35.89 24.1402 35.888 24.1152 35.8817 24.0913C35.8755 24.0675 35.8651 24.0452 35.8512 24.0259C35.8373 24.0065 35.8203 23.9904 35.8009 23.9784C35.7815 23.9665 35.7602 23.959 35.7383 23.9564C35.7163 23.9537 35.6941 23.956 35.673 23.9631C35.6518 23.9702 35.6321 23.9819 35.615 23.9976Z" fill="#B5E47C"/>
<path d="M36.3638 24.5378C36.3617 24.5814 36.3463 24.6228 36.3202 24.655C36.303 24.6705 36.2887 24.6898 36.2781 24.7117C36.2676 24.7335 36.2609 24.7575 36.2586 24.7822C36.2562 24.807 36.2583 24.832 36.2645 24.8559C36.2708 24.8797 36.2812 24.902 36.2951 24.9213C36.3089 24.9407 36.326 24.9568 36.3454 24.9688C36.3648 24.9807 36.386 24.9882 36.408 24.9908C36.4299 24.9935 36.4521 24.9912 36.4733 24.9841C36.4945 24.977 36.5142 24.9653 36.5313 24.9496C36.6228 24.8536 36.682 24.7248 36.6989 24.5851C36.7044 24.535 36.6921 24.4844 36.6646 24.4446C36.6371 24.4047 36.5967 24.3788 36.5523 24.3726C36.5078 24.3663 36.463 24.3802 36.4277 24.4112C36.3923 24.4422 36.3693 24.4877 36.3638 24.5378Z" fill="#B5E47C"/>
<path d="M37.0573 24.6908C37.0607 24.7502 37.075 24.8081 37.0992 24.8608C37.1964 25.0762 37.503 24.925 37.4058 24.7078C37.3935 24.6858 37.3877 24.6601 37.389 24.6342C37.3858 24.6096 37.3782 24.586 37.3669 24.5647C37.3555 24.5434 37.3405 24.5249 37.3228 24.5102C37.305 24.4954 37.2849 24.4848 37.2635 24.4788C37.2421 24.4729 37.2198 24.4717 37.1981 24.4755C37.1763 24.4792 37.1553 24.4877 37.1365 24.5005C37.1176 24.5133 37.1012 24.5302 37.0881 24.5502C37.075 24.5702 37.0656 24.593 37.0603 24.6171C37.055 24.6412 37.054 24.6663 37.0573 24.6908Z" fill="#B5E47C"/>
<path d="M38.1044 24.0014C38.0843 24.0114 38.0661 24.0258 38.0509 24.0438C38.0357 24.0617 38.0238 24.0829 38.0158 24.1061C38.0079 24.1292 38.0041 24.1539 38.0046 24.1787C38.0052 24.2036 38.01 24.228 38.019 24.2507C38.0621 24.3455 38.135 24.4188 38.2233 24.4566C38.426 24.5397 38.5584 24.1884 38.3473 24.1053C38.3322 24.1053 38.3272 24.1053 38.3255 24.1053C38.3173 24.0819 38.3049 24.0606 38.2893 24.0427C38.2736 24.0248 38.255 24.0105 38.2344 24.0009C38.2138 23.9912 38.1916 23.9862 38.1693 23.9863C38.147 23.9864 38.1249 23.9915 38.1044 24.0014Z" fill="#B5E47C"/>
<path d="M38.359 23.6878C38.4473 23.7225 38.539 23.7447 38.6321 23.754C38.8465 23.7747 38.8867 23.3988 38.6723 23.3762C38.6078 23.3708 38.5442 23.3562 38.483 23.3327C38.2786 23.2628 38.1546 23.6123 38.359 23.6878Z" fill="#B5E47C"/>
<path d="M38.7159 22.494C38.6716 22.5222 38.6224 22.5389 38.5718 22.5431C38.3574 22.5639 38.4043 22.9379 38.622 22.9209C38.703 22.9131 38.7816 22.8867 38.8532 22.8435C38.8734 22.8334 38.8916 22.819 38.9068 22.8011C38.922 22.7831 38.9339 22.7619 38.9418 22.7388C38.9497 22.7156 38.9535 22.6909 38.953 22.6661C38.9525 22.6413 38.9476 22.6168 38.9387 22.5941C38.9301 22.5709 38.9175 22.5498 38.9016 22.5321C38.8856 22.5144 38.8667 22.5005 38.846 22.4911C38.8252 22.4818 38.803 22.4773 38.7807 22.4778C38.7583 22.4783 38.7363 22.4838 38.7159 22.494Z" fill="#B5E47C"/>
<path d="M38.4428 21.68C38.4061 21.7107 38.3661 21.736 38.3238 21.7555C38.2832 21.7758 38.2513 21.8135 38.2353 21.8602C38.2193 21.907 38.2204 21.959 38.2384 22.0049C38.2564 22.0507 38.2898 22.0866 38.3313 22.1047C38.3727 22.1227 38.4189 22.1215 38.4595 22.1012C38.5287 22.0681 38.5939 22.0256 38.6539 21.9746C38.8264 21.8292 38.6153 21.5345 38.4428 21.68Z" fill="#B5E47C"/>
<path d="M37.6856 21.2323C37.6654 21.2423 37.6472 21.2567 37.632 21.2747C37.6169 21.2926 37.6049 21.3138 37.597 21.3369C37.5891 21.3601 37.5853 21.3848 37.5858 21.4096C37.5863 21.4344 37.5912 21.4589 37.6001 21.4816C37.6035 21.5003 37.6035 21.5196 37.6001 21.5382C37.565 21.7781 37.8983 21.8235 37.9352 21.5836C37.9462 21.4977 37.9382 21.4101 37.9117 21.3286C37.9029 21.3052 37.8899 21.284 37.8736 21.2664C37.8573 21.2488 37.838 21.2351 37.8169 21.2261C37.7957 21.2171 37.7732 21.213 37.7507 21.214C37.7281 21.2151 37.706 21.2213 37.6856 21.2323Z" fill="#B5E47C"/>
<path d="M36.5866 21.4212L36.6503 21.6951C36.6536 21.7196 36.6611 21.7432 36.6725 21.7645C36.6839 21.7858 36.6989 21.8043 36.7166 21.8191C36.7343 21.8338 36.7545 21.8445 36.7759 21.8504C36.7973 21.8564 36.8195 21.8575 36.8413 21.8537C36.8631 21.85 36.884 21.8415 36.9029 21.8287C36.9218 21.8159 36.9382 21.799 36.9513 21.779C36.9643 21.759 36.9738 21.7363 36.9791 21.7121C36.9843 21.688 36.9853 21.663 36.982 21.6384L36.9183 21.3645C36.9151 21.3399 36.9075 21.3163 36.8962 21.2951C36.8848 21.2738 36.8698 21.2552 36.8521 21.2405C36.8343 21.2258 36.8142 21.2151 36.7928 21.2092C36.7714 21.2032 36.7491 21.2021 36.7274 21.2058C36.7056 21.2095 36.6846 21.218 36.6658 21.2309C36.6469 21.2437 36.6304 21.2606 36.6174 21.2806C36.6043 21.3006 36.5949 21.3233 36.5896 21.3474C36.5843 21.3716 36.5833 21.3966 36.5866 21.4212Z" fill="#B5E47C"/>
<path d="M35.8964 21.935C35.8792 21.9505 35.8649 21.9698 35.8543 21.9917C35.8437 22.0135 35.8371 22.0375 35.8347 22.0622C35.8324 22.087 35.8344 22.112 35.8407 22.1359C35.847 22.1597 35.8574 22.182 35.8713 22.2013L35.9902 22.3373C36.018 22.3743 36.0572 22.3979 36.1 22.4032C36.1427 22.4084 36.1856 22.395 36.2197 22.3656C36.2369 22.35 36.2513 22.3308 36.2618 22.3089C36.2724 22.2871 36.2791 22.2631 36.2814 22.2383C36.2837 22.2136 36.2817 22.1886 36.2754 22.1647C36.2692 22.1408 36.2588 22.1186 36.2449 22.0993L36.1259 21.9633C36.0982 21.9263 36.0589 21.9027 36.0162 21.8974C35.9735 21.8922 35.9306 21.9056 35.8964 21.935Z" fill="#B5E47C"/>
<path d="M35.4558 23.0192L35.6233 23.0815C35.8277 23.1589 35.9583 22.8095 35.7473 22.7302L35.5797 22.6678C35.3821 22.5904 35.2514 22.9323 35.4558 23.0192Z" fill="#B5E47C"/>
<path d="M36.4995 22.7434C36.3018 22.8756 36.0773 23.0872 36.0991 23.3762C36.1041 23.4417 36.123 23.5049 36.1542 23.5604C36.1854 23.616 36.228 23.6623 36.2784 23.6954C36.2784 23.6954 36.2784 23.7124 36.2918 23.7199C36.3258 23.7662 36.3688 23.8031 36.4174 23.8276C36.5933 24.0165 36.9435 24.0165 37.1512 23.9409C37.2877 23.8998 37.4115 23.817 37.5091 23.7017C37.6066 23.5864 37.674 23.4431 37.704 23.2874C37.7105 23.2449 37.7105 23.2014 37.704 23.1589C37.7059 23.1268 37.7059 23.0947 37.704 23.0626C37.704 22.2976 36.8731 22.4865 36.4995 22.7434Z" fill="#FEFFFD"/>
<path d="M36.1095 17.7215C37.3456 16.7694 37.7823 15.0646 37.085 13.9138C36.3878 12.763 34.8204 12.602 33.5843 13.5541C32.3482 14.5063 31.9115 16.211 32.6087 17.3618C33.306 18.5126 34.8734 18.6737 36.1095 17.7215Z" fill="#7EA83B"/>
<path d="M36.9752 13.7485L37.4812 14.5721L33.0685 18.1005L32.5056 17.1712" fill="#7EA83B"/>
<path d="M36.4599 18.301C37.696 17.3488 38.1327 15.6441 37.4355 14.4933C36.7382 13.3425 35.1708 13.1814 33.9347 14.1336C32.6986 15.0857 32.2619 16.7905 32.9592 17.9413C33.6564 19.0921 35.2238 19.2531 36.4599 18.301Z" fill="#A2CB6B"/>
<path d="M36.3011 18.039C37.3821 17.2063 37.7643 15.7157 37.1546 14.7096C36.545 13.7035 35.1745 13.5629 34.0935 14.3956C33.0125 15.2283 32.6304 16.7189 33.24 17.725C33.8496 18.7311 35.2201 18.8717 36.3011 18.039Z" fill="#ECFFCF"/>
<path d="M36.7022 15.422L36.9032 15.2709C36.92 15.2548 36.9337 15.2351 36.9437 15.213C36.9537 15.1909 36.9597 15.1668 36.9614 15.1421C36.9631 15.1173 36.9605 15.0925 36.9537 15.0689C36.9468 15.0453 36.936 15.0235 36.9217 15.0046C36.9074 14.9857 36.8899 14.9703 36.8703 14.959C36.8507 14.9478 36.8293 14.941 36.8074 14.939C36.7854 14.9371 36.7634 14.9401 36.7425 14.9478C36.7216 14.9554 36.7022 14.9677 36.6855 14.9838L36.4844 15.1349C36.4677 15.1511 36.454 15.1707 36.444 15.1928C36.434 15.215 36.428 15.2391 36.4263 15.2638C36.4246 15.2885 36.4272 15.3134 36.434 15.337C36.4408 15.3606 36.4517 15.3824 36.466 15.4013C36.4803 15.4201 36.4978 15.4356 36.5174 15.4469C36.537 15.4581 36.5584 15.4649 36.5803 15.4668C36.6022 15.4687 36.6243 15.4658 36.6452 15.4581C36.6661 15.4504 36.6855 15.4382 36.7022 15.422Z" fill="#B5E47C"/>
<path d="M35.9417 14.9045C35.9433 14.8612 35.9581 14.8199 35.9835 14.7874C36.0003 14.7713 36.014 14.7516 36.024 14.7295C36.0339 14.7074 36.04 14.6833 36.0417 14.6586C36.0434 14.6338 36.0408 14.609 36.0339 14.5854C36.0271 14.5618 36.0163 14.5399 36.002 14.5211C35.9877 14.5022 35.9702 14.4867 35.9506 14.4755C35.931 14.4642 35.9096 14.4575 35.8877 14.4555C35.8657 14.4536 35.8437 14.4566 35.8228 14.4642C35.8018 14.4719 35.7825 14.4842 35.7658 14.5003C35.6755 14.6014 35.6197 14.7352 35.6083 14.8781C35.6083 14.9258 35.6244 14.9718 35.6533 15.0067C35.6822 15.0417 35.7218 15.0629 35.764 15.0663C35.8063 15.0697 35.8481 15.0548 35.8811 15.0248C35.914 14.9948 35.9357 14.9518 35.9417 14.9045Z" fill="#B5E47C"/>
<path d="M35.2363 14.7742C35.2317 14.7152 35.2163 14.658 35.1911 14.6061C35.0889 14.3927 34.7857 14.5532 34.8879 14.7685C34.9004 14.7898 34.9068 14.8148 34.9063 14.8403C34.9101 14.8648 34.9182 14.8881 34.9301 14.909C34.9419 14.9299 34.9573 14.948 34.9753 14.9622C34.9934 14.9764 35.0137 14.9865 35.0352 14.9918C35.0567 14.9972 35.079 14.9977 35.1006 14.9933C35.1223 14.989 35.143 14.9799 35.1616 14.9665C35.1801 14.9532 35.1962 14.9358 35.2088 14.9155C35.2214 14.8951 35.2303 14.8722 35.235 14.8479C35.2397 14.8237 35.2402 14.7986 35.2363 14.7742Z" fill="#B5E47C"/>
<path d="M34.2094 15.4957C34.2493 15.4741 34.28 15.4355 34.2948 15.3885C34.3095 15.3414 34.3071 15.2896 34.2882 15.2445C34.2429 15.1519 34.1689 15.0813 34.0804 15.0462C33.876 14.9687 33.7604 15.3239 33.9648 15.4013C33.9816 15.4013 33.9849 15.4013 33.9866 15.4013C33.9957 15.4241 34.0086 15.4446 34.0247 15.4617C34.0409 15.4788 34.0598 15.4921 34.0806 15.5009C34.1013 15.5097 34.1233 15.5137 34.1454 15.5129C34.1676 15.512 34.1893 15.5062 34.2094 15.4957Z" fill="#B5E47C"/>
<path d="M33.9665 15.813C33.8774 15.7808 33.7851 15.7611 33.6917 15.7545C33.4773 15.7413 33.4455 16.1172 33.6599 16.1323C33.7247 16.1357 33.7889 16.1484 33.8509 16.17C34.0569 16.2399 34.1725 15.8848 33.9665 15.813Z" fill="#B5E47C"/>
<path d="M33.6381 17.0201C33.6816 16.9909 33.7302 16.9728 33.7805 16.9672C33.995 16.9407 33.9363 16.5686 33.7219 16.5894C33.6412 16.5993 33.5631 16.6275 33.4924 16.6725C33.4525 16.6942 33.4218 16.7327 33.407 16.7798C33.3923 16.8269 33.3947 16.8786 33.4136 16.9237C33.4225 16.9469 33.4354 16.9678 33.4516 16.9853C33.4678 17.0028 33.4869 17.0164 33.5078 17.0254C33.5288 17.0343 33.5511 17.0385 33.5735 17.0376C33.5958 17.0367 33.6178 17.0307 33.6381 17.0201Z" fill="#B5E47C"/>
<path d="M33.9313 17.8323C33.9673 17.8004 34.0067 17.7738 34.0486 17.753C34.0685 17.7423 34.0863 17.7273 34.1011 17.7089C34.1159 17.6904 34.1273 17.6689 34.1347 17.6455C34.1421 17.622 34.1453 17.5972 34.1442 17.5724C34.1431 17.5476 34.1376 17.5232 34.1281 17.5008C34.1187 17.4784 34.1054 17.4582 34.089 17.4416C34.0727 17.4249 34.0536 17.412 34.0328 17.4037C33.9909 17.3869 33.9447 17.3895 33.9045 17.4111C33.8363 17.4462 33.7721 17.4906 33.7135 17.5433C33.5393 17.6887 33.7621 17.9777 33.9313 17.8323Z" fill="#B5E47C"/>
<path d="M34.6986 18.2516C34.7385 18.23 34.7692 18.1914 34.7839 18.1443C34.7987 18.0972 34.7963 18.0455 34.7773 18.0004C34.774 17.9817 34.774 17.9624 34.7773 17.9437C34.8058 17.7019 34.4724 17.6679 34.4423 17.9078C34.4328 17.9942 34.4426 18.0818 34.4708 18.1628C34.4802 18.1858 34.4937 18.2064 34.5104 18.2234C34.5271 18.2404 34.5467 18.2535 34.568 18.2618C34.5892 18.27 34.6118 18.2734 34.6342 18.2717C34.6566 18.2699 34.6785 18.2631 34.6986 18.2516Z" fill="#B5E47C"/>
<path d="M35.7925 18.0363L35.7222 17.7643C35.7183 17.7398 35.7102 17.7165 35.6984 17.6956C35.6865 17.6746 35.6712 17.6566 35.6531 17.6424C35.6351 17.6281 35.6147 17.6181 35.5932 17.6128C35.5717 17.6074 35.5495 17.6069 35.5278 17.6113C35.5061 17.6156 35.4854 17.6247 35.4669 17.6381C35.4483 17.6514 35.4323 17.6688 35.4197 17.6891C35.4071 17.7095 35.3982 17.7324 35.3934 17.7566C35.3887 17.7809 35.3883 17.8059 35.3921 17.8304L35.4625 18.1024C35.4663 18.1268 35.4744 18.1502 35.4862 18.1711C35.4981 18.192 35.5135 18.2101 35.5315 18.2243C35.5496 18.2385 35.5699 18.2485 35.5914 18.2539C35.6129 18.2592 35.6351 18.2597 35.6568 18.2554C35.6785 18.251 35.6992 18.2419 35.7177 18.2286C35.7363 18.2152 35.7523 18.1979 35.7649 18.1775C35.7775 18.1572 35.7865 18.1342 35.7912 18.11C35.7959 18.0857 35.7964 18.0607 35.7925 18.0363Z" fill="#B5E47C"/>
<path d="M36.4693 17.4923C36.4861 17.4761 36.4998 17.4565 36.5098 17.4344C36.5198 17.4122 36.5258 17.3881 36.5275 17.3634C36.5292 17.3387 36.5266 17.3138 36.5198 17.2902C36.5129 17.2666 36.5021 17.2448 36.4878 17.2259L36.3655 17.0937C36.3512 17.0749 36.3337 17.0594 36.3141 17.0481C36.2945 17.0369 36.2731 17.0301 36.2512 17.0282C36.2293 17.0262 36.2072 17.0292 36.1863 17.0369C36.1654 17.0446 36.146 17.0568 36.1293 17.0729C36.1125 17.0891 36.0988 17.1087 36.0888 17.1308C36.0789 17.153 36.0728 17.1771 36.0711 17.2018C36.0694 17.2265 36.072 17.2514 36.0789 17.275C36.0857 17.2986 36.0965 17.3204 36.1108 17.3393L36.2331 17.4715C36.2474 17.4903 36.2649 17.5058 36.2845 17.5171C36.3041 17.5283 36.3255 17.5351 36.3474 17.537C36.3694 17.539 36.3914 17.536 36.4123 17.5283C36.4333 17.5206 36.4526 17.5084 36.4693 17.4923Z" fill="#B5E47C"/>
<path d="M36.8898 16.3968L36.7223 16.3382C36.5162 16.2664 36.4006 16.6215 36.6067 16.6933L36.7742 16.7519C36.9752 16.8218 37.0908 16.4685 36.8898 16.3968Z" fill="#B5E47C"/>
<path d="M35.8478 16.7103C36.0422 16.5724 36.2616 16.3533 36.2315 16.0643C36.2252 16.0004 36.2057 15.9391 36.1746 15.8853C36.1434 15.8315 36.1015 15.7867 36.0522 15.7545C36.0522 15.7545 36.0522 15.7375 36.0388 15.7299C36.0035 15.6845 35.9593 15.649 35.9098 15.626C35.7289 15.4372 35.3787 15.4579 35.1744 15.5354C35.039 15.5809 34.9174 15.6675 34.8228 15.7858C34.7282 15.9041 34.6644 16.0494 34.6383 16.2059C34.6353 16.2484 34.6387 16.2912 34.6483 16.3325C34.6465 16.3646 34.6465 16.3967 34.6483 16.4288C34.655 17.1863 35.4809 16.9709 35.8478 16.7103Z" fill="#FEFFFD"/>
<path d="M39.6071 9.20572C39.8232 8.45016 39.4396 7.94772 38.9973 7.43583C38.7192 7.10905 38.545 6.88239 38.6187 6.38939C38.6539 6.15517 38.7728 5.94172 38.798 5.70372C38.8225 5.531 38.813 5.35431 38.7701 5.18619C38.7273 5.01807 38.6521 4.86265 38.55 4.73095C38.4464 4.60334 38.3189 4.50335 38.1768 4.43822C38.0346 4.37309 37.8814 4.34446 37.7282 4.35441C37.575 4.36435 37.4257 4.41263 37.2911 4.49573C37.1566 4.57883 37.0401 4.69467 36.9501 4.83484C36.6285 5.29761 36.6586 5.92661 36.0405 6.10039C35.7272 6.18917 35.3905 5.98517 35.0604 6.1155C34.4406 6.36294 34.2496 7.23183 34.3384 7.89672C34.4093 8.42939 34.6471 8.91583 35.0085 9.26805L35.0236 9.28316C35.2155 9.4687 35.4358 9.61335 35.6736 9.71005C35.7075 9.7235 35.7432 9.7299 35.7791 9.72894C37.0909 10.407 39.0844 11.0455 39.6071 9.20572ZM37.3355 9.6836C36.6681 9.49583 36.0275 9.20335 35.4323 8.81472C34.9951 8.41238 34.7053 7.74561 34.9482 7.12794C35.2347 6.39695 35.8763 6.84839 36.3738 6.70672C36.7357 6.60472 36.9418 6.32894 37.1059 5.9625C37.2065 5.7415 37.245 5.39584 37.4008 5.22584C38.1413 5.21702 38.3864 5.46887 38.1362 5.98139C38.1018 6.07777 38.0738 6.17689 38.0525 6.27795C37.965 6.62041 37.9998 6.98789 38.1496 7.30172C38.4026 7.81361 39.1548 8.1895 39.0995 8.85249C39.0308 9.80827 37.9302 9.83283 37.3371 9.6836H37.3355Z" fill="#D34040"/>
<path d="M31.9948 2.48965C32.3375 1.72058 32.1815 0.851526 31.6466 0.548573C31.1117 0.24562 30.4003 0.623487 30.0577 1.39256C29.7151 2.16164 29.871 3.03069 30.4059 3.33364C30.9408 3.63659 31.6522 3.25873 31.9948 2.48965Z" fill="#362F44"/>
<path d="M31.7685 1.82401C31.8167 1.63516 31.8167 1.43485 31.7685 1.24601C31.7616 1.22244 31.7506 1.20065 31.7362 1.18187C31.7218 1.16308 31.7043 1.14769 31.6846 1.13655C31.6649 1.12541 31.6435 1.11875 31.6215 1.11695C31.5996 1.11515 31.5775 1.11825 31.5566 1.12606C31.5357 1.13388 31.5164 1.14625 31.4997 1.16249C31.4831 1.17873 31.4694 1.19851 31.4595 1.22069C31.4496 1.24288 31.4437 1.26705 31.4421 1.29181C31.4405 1.31657 31.4433 1.34144 31.4502 1.36501C31.4766 1.49005 31.4714 1.62092 31.4351 1.74278C31.4308 1.76722 31.4307 1.7924 31.435 1.81687C31.4393 1.84133 31.4478 1.86459 31.4601 1.88531C31.4724 1.90603 31.4883 1.9238 31.5067 1.9376C31.5251 1.95139 31.5458 1.96093 31.5675 1.96567C31.5889 1.97127 31.6112 1.97204 31.6329 1.96795C31.6546 1.96386 31.6754 1.95498 31.6941 1.94182C31.7127 1.92867 31.7289 1.91149 31.7417 1.89127C31.7545 1.87106 31.7636 1.8482 31.7685 1.82401Z" fill="#776F93"/>
<path d="M31.539 2.12618C31.4992 2.10364 31.4531 2.09983 31.4109 2.1156C31.3686 2.13136 31.3337 2.1654 31.3137 2.21024C31.2937 2.25508 31.2903 2.30703 31.3043 2.35468C31.3183 2.40232 31.3484 2.44175 31.3882 2.46429C31.4079 2.47546 31.4294 2.48214 31.4513 2.48395C31.4733 2.48577 31.4954 2.48269 31.5163 2.47488C31.5372 2.46708 31.5566 2.4547 31.5733 2.43846C31.59 2.42222 31.6036 2.40244 31.6135 2.38024C31.6234 2.35804 31.6294 2.33386 31.631 2.30907C31.6326 2.28429 31.6299 2.25939 31.6229 2.2358C31.616 2.21221 31.605 2.19039 31.5906 2.17158C31.5762 2.15277 31.5587 2.13735 31.539 2.12618Z" fill="#776F93"/>
<defs>
<linearGradient id="paint0_linear_9_863" x1="28.0896" y1="27.8339" x2="16.6326" y2="36.1209" gradientUnits="userSpaceOnUse">
<stop stop-color="#D4A397"/>
<stop offset="1" stop-color="white"/>
</linearGradient>
</defs>
</svg>
